G04 EAGLE Gerber RS-274X export*
G75*
%MOMM*%
%FSLAX34Y34*%
%LPD*%
%INBottom Copper*%
%IPPOS*%
%AMOC8*
5,1,8,0,0,1.08239X$1,22.5*%
G01*
%ADD10R,1.158000X1.158000*%
%ADD11C,1.158000*%
%ADD12C,2.540000*%
%ADD13P,2.749271X8X292.500000*%
%ADD14C,2.095500*%
%ADD15R,2.150000X2.200000*%
%ADD16P,1.429621X8X202.500000*%
%ADD17C,1.524000*%
%ADD18R,4.064000X1.524000*%
%ADD19C,1.676400*%
%ADD20C,0.609600*%
%ADD21C,0.654800*%
%ADD22C,0.304800*%
%ADD23C,0.975000*%
%ADD24C,0.406400*%
%ADD25C,0.754800*%
%ADD26C,0.457200*%
%ADD27C,0.804800*%
%ADD28C,0.355600*%
%ADD29C,0.854800*%

G36*
X933778Y4D02*
X933778Y4D01*
X933797Y2D01*
X933899Y24D01*
X934001Y40D01*
X934018Y50D01*
X934038Y54D01*
X934127Y107D01*
X934218Y156D01*
X934232Y170D01*
X934249Y180D01*
X934316Y259D01*
X934388Y334D01*
X934396Y352D01*
X934409Y367D01*
X934448Y463D01*
X934491Y557D01*
X934493Y577D01*
X934501Y595D01*
X934519Y762D01*
X934519Y111760D01*
X934516Y111780D01*
X934518Y111799D01*
X934496Y111901D01*
X934480Y112003D01*
X934470Y112020D01*
X934466Y112040D01*
X934413Y112129D01*
X934364Y112220D01*
X934350Y112234D01*
X934340Y112251D01*
X934261Y112318D01*
X934186Y112390D01*
X934168Y112398D01*
X934153Y112411D01*
X934057Y112450D01*
X933963Y112493D01*
X933943Y112495D01*
X933925Y112503D01*
X933758Y112521D01*
X932941Y112521D01*
X932941Y228285D01*
X934296Y229640D01*
X934349Y229714D01*
X934409Y229783D01*
X934421Y229813D01*
X934440Y229839D01*
X934467Y229926D01*
X934501Y230011D01*
X934505Y230052D01*
X934512Y230075D01*
X934511Y230107D01*
X934519Y230178D01*
X934519Y707138D01*
X934516Y707158D01*
X934518Y707177D01*
X934496Y707279D01*
X934480Y707381D01*
X934470Y707398D01*
X934466Y707418D01*
X934413Y707507D01*
X934364Y707598D01*
X934350Y707612D01*
X934340Y707629D01*
X934261Y707696D01*
X934186Y707768D01*
X934168Y707776D01*
X934153Y707789D01*
X934057Y707828D01*
X933963Y707871D01*
X933943Y707873D01*
X933925Y707881D01*
X933758Y707899D01*
X3302Y707899D01*
X3282Y707896D01*
X3263Y707898D01*
X3161Y707876D01*
X3059Y707860D01*
X3042Y707850D01*
X3022Y707846D01*
X2933Y707793D01*
X2842Y707744D01*
X2828Y707730D01*
X2811Y707720D01*
X2744Y707641D01*
X2672Y707566D01*
X2664Y707548D01*
X2651Y707533D01*
X2612Y707437D01*
X2569Y707343D01*
X2567Y707323D01*
X2559Y707305D01*
X2541Y707138D01*
X2541Y762D01*
X2544Y742D01*
X2542Y723D01*
X2564Y621D01*
X2580Y519D01*
X2590Y502D01*
X2594Y482D01*
X2647Y393D01*
X2696Y302D01*
X2710Y288D01*
X2720Y271D01*
X2799Y204D01*
X2874Y132D01*
X2892Y124D01*
X2907Y111D01*
X3003Y72D01*
X3097Y29D01*
X3117Y27D01*
X3135Y19D01*
X3302Y1D01*
X933758Y1D01*
X933778Y4D01*
G37*
%LPC*%
G36*
X483152Y325401D02*
X483152Y325401D01*
X480341Y328212D01*
X480341Y332188D01*
X481868Y333715D01*
X481921Y333789D01*
X481981Y333858D01*
X481993Y333888D01*
X482012Y333914D01*
X482039Y334001D01*
X482073Y334086D01*
X482077Y334127D01*
X482084Y334150D01*
X482083Y334182D01*
X482091Y334253D01*
X482091Y514343D01*
X487738Y519990D01*
X487791Y520064D01*
X487851Y520133D01*
X487863Y520163D01*
X487882Y520190D01*
X487909Y520277D01*
X487943Y520361D01*
X487947Y520402D01*
X487954Y520425D01*
X487953Y520457D01*
X487961Y520528D01*
X487961Y522688D01*
X489245Y523972D01*
X489287Y524030D01*
X489337Y524082D01*
X489358Y524129D01*
X489389Y524171D01*
X489410Y524240D01*
X489440Y524305D01*
X489446Y524357D01*
X489461Y524407D01*
X489459Y524478D01*
X489467Y524549D01*
X489456Y524600D01*
X489455Y524652D01*
X489430Y524720D01*
X489415Y524790D01*
X489388Y524835D01*
X489370Y524883D01*
X489326Y524939D01*
X489289Y525001D01*
X489249Y525035D01*
X489217Y525075D01*
X489156Y525114D01*
X489102Y525161D01*
X489054Y525180D01*
X489010Y525208D01*
X488940Y525226D01*
X488874Y525253D01*
X488802Y525261D01*
X488771Y525269D01*
X488748Y525267D01*
X488707Y525271D01*
X445777Y525271D01*
X423671Y547377D01*
X423671Y572462D01*
X423668Y572481D01*
X423670Y572500D01*
X423655Y572571D01*
X423649Y572645D01*
X423635Y572682D01*
X423632Y572705D01*
X423631Y572705D01*
X423622Y572723D01*
X423618Y572741D01*
X423607Y572759D01*
X423591Y572802D01*
X423549Y572860D01*
X423516Y572922D01*
X423500Y572937D01*
X423492Y572952D01*
X423469Y572972D01*
X423447Y573002D01*
X423389Y573043D01*
X423338Y573091D01*
X423317Y573101D01*
X423305Y573112D01*
X423278Y573123D01*
X423247Y573145D01*
X423179Y573165D01*
X423115Y573195D01*
X423091Y573198D01*
X423077Y573204D01*
X423040Y573208D01*
X423011Y573216D01*
X422971Y573215D01*
X422910Y573222D01*
X422895Y573219D01*
X422871Y573222D01*
X422819Y573211D01*
X422765Y573209D01*
X422712Y573190D01*
X422667Y573182D01*
X422653Y573175D01*
X422630Y573170D01*
X422585Y573143D01*
X422535Y573124D01*
X422491Y573089D01*
X422450Y573067D01*
X422439Y573055D01*
X422419Y573044D01*
X422385Y573003D01*
X422343Y572970D01*
X422313Y572923D01*
X422280Y572889D01*
X422273Y572873D01*
X422259Y572857D01*
X422239Y572807D01*
X422211Y572763D01*
X422198Y572711D01*
X422177Y572666D01*
X422175Y572648D01*
X422167Y572629D01*
X422159Y572556D01*
X422151Y572524D01*
X422153Y572501D01*
X422149Y572462D01*
X422149Y501958D01*
X422163Y501868D01*
X422171Y501777D01*
X422183Y501747D01*
X422188Y501715D01*
X422231Y501635D01*
X422267Y501551D01*
X422293Y501519D01*
X422304Y501498D01*
X422327Y501476D01*
X422372Y501420D01*
X474270Y449522D01*
X474344Y449469D01*
X474413Y449409D01*
X474443Y449397D01*
X474470Y449378D01*
X474557Y449351D01*
X474641Y449317D01*
X474682Y449313D01*
X474705Y449306D01*
X474737Y449307D01*
X474808Y449299D01*
X476968Y449299D01*
X479779Y446488D01*
X479779Y442512D01*
X478252Y440985D01*
X478199Y440911D01*
X478139Y440842D01*
X478127Y440812D01*
X478108Y440786D01*
X478081Y440699D01*
X478047Y440614D01*
X478043Y440573D01*
X478036Y440550D01*
X478037Y440518D01*
X478029Y440447D01*
X478029Y407677D01*
X443223Y372871D01*
X400057Y372871D01*
X389330Y383598D01*
X389256Y383651D01*
X389187Y383711D01*
X389157Y383723D01*
X389130Y383742D01*
X389043Y383769D01*
X388959Y383803D01*
X388918Y383807D01*
X388895Y383814D01*
X388863Y383813D01*
X388792Y383821D01*
X386632Y383821D01*
X383821Y386632D01*
X383821Y390608D01*
X385105Y391892D01*
X385147Y391950D01*
X385197Y392002D01*
X385218Y392049D01*
X385249Y392091D01*
X385270Y392160D01*
X385300Y392225D01*
X385306Y392277D01*
X385321Y392327D01*
X385319Y392398D01*
X385327Y392469D01*
X385316Y392520D01*
X385315Y392572D01*
X385290Y392640D01*
X385275Y392710D01*
X385248Y392755D01*
X385230Y392803D01*
X385186Y392859D01*
X385149Y392921D01*
X385109Y392955D01*
X385077Y392995D01*
X385016Y393034D01*
X384962Y393081D01*
X384914Y393100D01*
X384870Y393128D01*
X384800Y393146D01*
X384734Y393173D01*
X384662Y393181D01*
X384631Y393189D01*
X384608Y393187D01*
X384567Y393191D01*
X323857Y393191D01*
X252170Y464878D01*
X252096Y464931D01*
X252027Y464991D01*
X251997Y465003D01*
X251970Y465022D01*
X251883Y465049D01*
X251799Y465083D01*
X251758Y465087D01*
X251735Y465094D01*
X251703Y465093D01*
X251632Y465101D01*
X249472Y465101D01*
X246661Y467912D01*
X246661Y471888D01*
X249472Y474699D01*
X253448Y474699D01*
X256259Y471888D01*
X256259Y469728D01*
X256273Y469638D01*
X256281Y469547D01*
X256293Y469517D01*
X256298Y469485D01*
X256341Y469405D01*
X256377Y469321D01*
X256403Y469289D01*
X256414Y469268D01*
X256437Y469246D01*
X256482Y469190D01*
X326160Y399512D01*
X326234Y399459D01*
X326303Y399399D01*
X326333Y399387D01*
X326360Y399368D01*
X326447Y399341D01*
X326531Y399307D01*
X326572Y399303D01*
X326595Y399296D01*
X326627Y399297D01*
X326698Y399289D01*
X432827Y399289D01*
X432917Y399303D01*
X433008Y399311D01*
X433038Y399323D01*
X433070Y399328D01*
X433150Y399371D01*
X433234Y399407D01*
X433266Y399433D01*
X433287Y399444D01*
X433309Y399467D01*
X433365Y399512D01*
X434892Y401039D01*
X438868Y401039D01*
X441679Y398228D01*
X441679Y394252D01*
X438868Y391441D01*
X434892Y391441D01*
X433365Y392968D01*
X433291Y393021D01*
X433222Y393081D01*
X433192Y393093D01*
X433166Y393112D01*
X433079Y393139D01*
X432994Y393173D01*
X432953Y393177D01*
X432930Y393184D01*
X432898Y393183D01*
X432827Y393191D01*
X392673Y393191D01*
X392602Y393180D01*
X392531Y393178D01*
X392482Y393160D01*
X392430Y393152D01*
X392367Y393118D01*
X392300Y393093D01*
X392259Y393061D01*
X392213Y393036D01*
X392163Y392984D01*
X392107Y392940D01*
X392079Y392896D01*
X392043Y392858D01*
X392013Y392793D01*
X391974Y392733D01*
X391962Y392682D01*
X391940Y392635D01*
X391932Y392564D01*
X391914Y392494D01*
X391918Y392442D01*
X391913Y392391D01*
X391928Y392320D01*
X391934Y392249D01*
X391954Y392201D01*
X391965Y392150D01*
X392002Y392089D01*
X392030Y392023D01*
X392075Y391967D01*
X392091Y391939D01*
X392109Y391924D01*
X392135Y391892D01*
X393419Y390608D01*
X393419Y388448D01*
X393433Y388358D01*
X393441Y388267D01*
X393453Y388237D01*
X393458Y388205D01*
X393501Y388125D01*
X393537Y388041D01*
X393563Y388009D01*
X393574Y387988D01*
X393597Y387966D01*
X393642Y387910D01*
X402360Y379192D01*
X402434Y379139D01*
X402503Y379079D01*
X402533Y379067D01*
X402560Y379048D01*
X402647Y379021D01*
X402731Y378987D01*
X402772Y378983D01*
X402795Y378976D01*
X402827Y378977D01*
X402898Y378969D01*
X440382Y378969D01*
X440472Y378983D01*
X440563Y378991D01*
X440593Y379003D01*
X440625Y379008D01*
X440705Y379051D01*
X440789Y379087D01*
X440821Y379113D01*
X440842Y379124D01*
X440864Y379147D01*
X440920Y379192D01*
X471708Y409980D01*
X471761Y410054D01*
X471821Y410123D01*
X471833Y410153D01*
X471852Y410180D01*
X471879Y410267D01*
X471913Y410351D01*
X471917Y410392D01*
X471924Y410415D01*
X471923Y410447D01*
X471931Y410518D01*
X471931Y440447D01*
X471917Y440537D01*
X471909Y440628D01*
X471897Y440658D01*
X471892Y440690D01*
X471849Y440770D01*
X471813Y440854D01*
X471787Y440886D01*
X471776Y440907D01*
X471753Y440929D01*
X471708Y440985D01*
X470181Y442512D01*
X470181Y444672D01*
X470167Y444762D01*
X470159Y444853D01*
X470147Y444883D01*
X470142Y444915D01*
X470099Y444995D01*
X470063Y445079D01*
X470037Y445111D01*
X470026Y445132D01*
X470003Y445154D01*
X469958Y445210D01*
X416051Y499117D01*
X416051Y577607D01*
X416037Y577697D01*
X416029Y577788D01*
X416017Y577818D01*
X416012Y577850D01*
X415969Y577930D01*
X415933Y578014D01*
X415907Y578046D01*
X415896Y578067D01*
X415873Y578089D01*
X415828Y578145D01*
X414301Y579672D01*
X414301Y583648D01*
X417112Y586459D01*
X421088Y586459D01*
X423899Y583648D01*
X423899Y581488D01*
X423913Y581398D01*
X423921Y581307D01*
X423933Y581277D01*
X423938Y581245D01*
X423981Y581165D01*
X424017Y581081D01*
X424043Y581049D01*
X424054Y581028D01*
X424077Y581006D01*
X424122Y580950D01*
X429769Y575303D01*
X429769Y550218D01*
X429783Y550128D01*
X429791Y550037D01*
X429803Y550007D01*
X429808Y549975D01*
X429851Y549895D01*
X429887Y549811D01*
X429913Y549779D01*
X429924Y549758D01*
X429947Y549736D01*
X429992Y549680D01*
X448080Y531592D01*
X448154Y531539D01*
X448223Y531479D01*
X448253Y531467D01*
X448280Y531448D01*
X448367Y531421D01*
X448451Y531387D01*
X448492Y531383D01*
X448515Y531376D01*
X448547Y531377D01*
X448618Y531369D01*
X473467Y531369D01*
X473538Y531380D01*
X473609Y531382D01*
X473658Y531400D01*
X473710Y531408D01*
X473773Y531442D01*
X473840Y531467D01*
X473881Y531499D01*
X473927Y531524D01*
X473977Y531576D01*
X474033Y531620D01*
X474061Y531664D01*
X474097Y531702D01*
X474127Y531767D01*
X474166Y531827D01*
X474178Y531878D01*
X474200Y531925D01*
X474208Y531996D01*
X474226Y532066D01*
X474222Y532118D01*
X474227Y532169D01*
X474212Y532240D01*
X474206Y532311D01*
X474186Y532359D01*
X474175Y532410D01*
X474138Y532471D01*
X474110Y532537D01*
X474065Y532593D01*
X474049Y532621D01*
X474031Y532636D01*
X474005Y532668D01*
X472721Y533952D01*
X472721Y536112D01*
X472707Y536202D01*
X472699Y536293D01*
X472687Y536323D01*
X472682Y536355D01*
X472639Y536435D01*
X472603Y536519D01*
X472577Y536551D01*
X472566Y536572D01*
X472543Y536594D01*
X472498Y536650D01*
X438911Y570237D01*
X438911Y636027D01*
X438897Y636117D01*
X438889Y636208D01*
X438877Y636238D01*
X438872Y636270D01*
X438829Y636350D01*
X438793Y636434D01*
X438767Y636466D01*
X438756Y636487D01*
X438733Y636509D01*
X438688Y636565D01*
X437161Y638092D01*
X437161Y642068D01*
X439972Y644879D01*
X443948Y644879D01*
X446759Y642068D01*
X446759Y638092D01*
X445232Y636565D01*
X445179Y636491D01*
X445119Y636422D01*
X445107Y636392D01*
X445088Y636366D01*
X445061Y636279D01*
X445027Y636194D01*
X445023Y636153D01*
X445016Y636130D01*
X445017Y636098D01*
X445009Y636027D01*
X445009Y573078D01*
X445023Y572988D01*
X445031Y572897D01*
X445043Y572867D01*
X445048Y572835D01*
X445091Y572755D01*
X445127Y572671D01*
X445153Y572639D01*
X445164Y572618D01*
X445187Y572596D01*
X445232Y572540D01*
X476810Y540962D01*
X476884Y540909D01*
X476953Y540849D01*
X476983Y540837D01*
X477010Y540818D01*
X477097Y540791D01*
X477181Y540757D01*
X477222Y540753D01*
X477245Y540746D01*
X477277Y540747D01*
X477348Y540739D01*
X479508Y540739D01*
X482319Y537928D01*
X482319Y533952D01*
X481035Y532668D01*
X480993Y532610D01*
X480943Y532558D01*
X480922Y532511D01*
X480891Y532469D01*
X480870Y532400D01*
X480840Y532335D01*
X480834Y532283D01*
X480819Y532233D01*
X480821Y532162D01*
X480813Y532091D01*
X480824Y532040D01*
X480825Y531988D01*
X480850Y531920D01*
X480865Y531850D01*
X480892Y531805D01*
X480910Y531757D01*
X480954Y531701D01*
X480991Y531639D01*
X481031Y531605D01*
X481063Y531565D01*
X481124Y531526D01*
X481178Y531479D01*
X481226Y531460D01*
X481270Y531432D01*
X481340Y531414D01*
X481406Y531387D01*
X481478Y531379D01*
X481509Y531371D01*
X481532Y531373D01*
X481573Y531369D01*
X504183Y531369D01*
X511049Y524503D01*
X511049Y509578D01*
X511063Y509488D01*
X511071Y509397D01*
X511083Y509367D01*
X511088Y509335D01*
X511131Y509255D01*
X511167Y509171D01*
X511193Y509139D01*
X511204Y509118D01*
X511227Y509096D01*
X511272Y509040D01*
X526820Y493492D01*
X526894Y493439D01*
X526963Y493379D01*
X526993Y493367D01*
X527020Y493348D01*
X527107Y493321D01*
X527191Y493287D01*
X527232Y493283D01*
X527255Y493276D01*
X527287Y493277D01*
X527358Y493269D01*
X549903Y493269D01*
X560630Y482542D01*
X560704Y482489D01*
X560773Y482429D01*
X560803Y482417D01*
X560830Y482398D01*
X560917Y482371D01*
X561001Y482337D01*
X561042Y482333D01*
X561065Y482326D01*
X561097Y482327D01*
X561168Y482319D01*
X563328Y482319D01*
X566139Y479508D01*
X566139Y475768D01*
X566141Y475754D01*
X566140Y475743D01*
X566150Y475694D01*
X566152Y475626D01*
X566170Y475577D01*
X566178Y475525D01*
X566212Y475462D01*
X566237Y475395D01*
X566269Y475354D01*
X566294Y475308D01*
X566346Y475259D01*
X566390Y475203D01*
X566434Y475174D01*
X566472Y475139D01*
X566537Y475108D01*
X566597Y475070D01*
X566648Y475057D01*
X566695Y475035D01*
X566766Y475027D01*
X566836Y475010D01*
X566888Y475014D01*
X566939Y475008D01*
X567010Y475023D01*
X567081Y475029D01*
X567129Y475049D01*
X567180Y475060D01*
X567241Y475097D01*
X567307Y475125D01*
X567363Y475170D01*
X567364Y475170D01*
X567374Y475176D01*
X567375Y475177D01*
X567391Y475186D01*
X567406Y475204D01*
X567438Y475230D01*
X586008Y493800D01*
X586061Y493874D01*
X586121Y493943D01*
X586133Y493973D01*
X586152Y494000D01*
X586179Y494087D01*
X586213Y494171D01*
X586217Y494212D01*
X586224Y494235D01*
X586223Y494267D01*
X586231Y494338D01*
X586231Y529347D01*
X586217Y529437D01*
X586209Y529528D01*
X586197Y529558D01*
X586192Y529590D01*
X586149Y529670D01*
X586113Y529754D01*
X586087Y529786D01*
X586076Y529807D01*
X586053Y529829D01*
X586008Y529885D01*
X584481Y531412D01*
X584481Y532612D01*
X584470Y532683D01*
X584468Y532754D01*
X584450Y532803D01*
X584442Y532855D01*
X584408Y532918D01*
X584383Y532985D01*
X584351Y533026D01*
X584326Y533072D01*
X584274Y533121D01*
X584230Y533177D01*
X584186Y533206D01*
X584148Y533241D01*
X584083Y533272D01*
X584023Y533310D01*
X583972Y533323D01*
X583925Y533345D01*
X583854Y533353D01*
X583784Y533370D01*
X583732Y533366D01*
X583681Y533372D01*
X583610Y533357D01*
X583539Y533351D01*
X583491Y533331D01*
X583440Y533320D01*
X583379Y533283D01*
X583313Y533255D01*
X583257Y533210D01*
X583229Y533194D01*
X583214Y533176D01*
X583182Y533150D01*
X559532Y509500D01*
X557523Y507491D01*
X532373Y507491D01*
X532283Y507477D01*
X532192Y507469D01*
X532162Y507457D01*
X532130Y507452D01*
X532050Y507409D01*
X531966Y507373D01*
X531934Y507347D01*
X531913Y507336D01*
X531891Y507313D01*
X531835Y507268D01*
X530308Y505741D01*
X526332Y505741D01*
X523521Y508552D01*
X523521Y512528D01*
X526332Y515339D01*
X530308Y515339D01*
X531835Y513812D01*
X531909Y513759D01*
X531978Y513699D01*
X532008Y513687D01*
X532034Y513668D01*
X532121Y513641D01*
X532206Y513607D01*
X532247Y513603D01*
X532270Y513596D01*
X532302Y513597D01*
X532373Y513589D01*
X554682Y513589D01*
X554772Y513603D01*
X554863Y513611D01*
X554893Y513623D01*
X554925Y513628D01*
X555005Y513671D01*
X555089Y513707D01*
X555121Y513733D01*
X555142Y513744D01*
X555164Y513767D01*
X555220Y513812D01*
X573790Y532382D01*
X573832Y532440D01*
X573881Y532492D01*
X573903Y532539D01*
X573934Y532581D01*
X573955Y532650D01*
X573985Y532715D01*
X573991Y532767D01*
X574006Y532817D01*
X574004Y532888D01*
X574012Y532959D01*
X574001Y533010D01*
X574000Y533062D01*
X573975Y533130D01*
X573960Y533200D01*
X573933Y533245D01*
X573915Y533293D01*
X573870Y533349D01*
X573834Y533411D01*
X573794Y533445D01*
X573762Y533485D01*
X573701Y533524D01*
X573647Y533571D01*
X573598Y533590D01*
X573555Y533618D01*
X573485Y533636D01*
X573419Y533663D01*
X573347Y533671D01*
X573316Y533679D01*
X573293Y533677D01*
X573252Y533681D01*
X569512Y533681D01*
X566701Y536492D01*
X566701Y538293D01*
X566687Y538383D01*
X566679Y538474D01*
X566667Y538503D01*
X566662Y538535D01*
X566619Y538616D01*
X566583Y538700D01*
X566557Y538732D01*
X566546Y538753D01*
X566523Y538775D01*
X566478Y538831D01*
X495651Y609658D01*
X495577Y609711D01*
X495508Y609771D01*
X495477Y609783D01*
X495451Y609802D01*
X495364Y609829D01*
X495279Y609863D01*
X495238Y609867D01*
X495216Y609874D01*
X495184Y609873D01*
X495113Y609881D01*
X493312Y609881D01*
X490501Y612692D01*
X490501Y616668D01*
X493312Y619479D01*
X495113Y619479D01*
X495203Y619493D01*
X495294Y619501D01*
X495323Y619513D01*
X495355Y619518D01*
X495436Y619561D01*
X495520Y619597D01*
X495552Y619623D01*
X495573Y619634D01*
X495595Y619657D01*
X495651Y619702D01*
X559972Y684023D01*
X692161Y684023D01*
X692251Y684037D01*
X692342Y684045D01*
X692372Y684057D01*
X692404Y684062D01*
X692484Y684105D01*
X692568Y684141D01*
X692600Y684167D01*
X692621Y684178D01*
X692643Y684201D01*
X692699Y684246D01*
X693972Y685519D01*
X697948Y685519D01*
X700759Y682708D01*
X700759Y678732D01*
X697948Y675921D01*
X693972Y675921D01*
X692699Y677194D01*
X692625Y677247D01*
X692556Y677307D01*
X692526Y677319D01*
X692500Y677338D01*
X692413Y677365D01*
X692328Y677399D01*
X692287Y677403D01*
X692264Y677410D01*
X692232Y677409D01*
X692161Y677417D01*
X563023Y677417D01*
X562933Y677403D01*
X562842Y677395D01*
X562813Y677383D01*
X562781Y677378D01*
X562700Y677335D01*
X562616Y677299D01*
X562584Y677273D01*
X562563Y677262D01*
X562541Y677239D01*
X562485Y677194D01*
X500509Y615218D01*
X500497Y615202D01*
X500482Y615190D01*
X500426Y615102D01*
X500366Y615019D01*
X500360Y615000D01*
X500349Y614983D01*
X500324Y614882D01*
X500293Y614783D01*
X500294Y614764D01*
X500289Y614744D01*
X500297Y614641D01*
X500300Y614538D01*
X500306Y614519D01*
X500308Y614499D01*
X500348Y614404D01*
X500384Y614307D01*
X500396Y614291D01*
X500404Y614273D01*
X500509Y614142D01*
X571149Y543502D01*
X571223Y543449D01*
X571292Y543389D01*
X571323Y543377D01*
X571349Y543358D01*
X571436Y543331D01*
X571521Y543297D01*
X571562Y543293D01*
X571584Y543286D01*
X571616Y543287D01*
X571687Y543279D01*
X573488Y543279D01*
X576299Y540468D01*
X576299Y536728D01*
X576310Y536657D01*
X576312Y536586D01*
X576330Y536537D01*
X576338Y536485D01*
X576372Y536422D01*
X576397Y536355D01*
X576429Y536314D01*
X576454Y536268D01*
X576506Y536219D01*
X576550Y536163D01*
X576594Y536134D01*
X576632Y536099D01*
X576697Y536068D01*
X576757Y536030D01*
X576808Y536017D01*
X576855Y535995D01*
X576926Y535987D01*
X576996Y535970D01*
X577048Y535974D01*
X577099Y535968D01*
X577170Y535983D01*
X577241Y535989D01*
X577289Y536009D01*
X577340Y536020D01*
X577401Y536057D01*
X577467Y536085D01*
X577523Y536130D01*
X577551Y536146D01*
X577566Y536164D01*
X577598Y536190D01*
X598177Y556769D01*
X615707Y556769D01*
X615797Y556783D01*
X615888Y556791D01*
X615918Y556803D01*
X615950Y556808D01*
X616030Y556851D01*
X616114Y556887D01*
X616146Y556913D01*
X616167Y556924D01*
X616189Y556947D01*
X616245Y556992D01*
X617772Y558519D01*
X621748Y558519D01*
X624559Y555708D01*
X624559Y551732D01*
X621748Y548921D01*
X617772Y548921D01*
X616245Y550448D01*
X616171Y550501D01*
X616102Y550561D01*
X616072Y550573D01*
X616046Y550592D01*
X615959Y550619D01*
X615874Y550653D01*
X615833Y550657D01*
X615810Y550664D01*
X615778Y550663D01*
X615707Y550671D01*
X601018Y550671D01*
X600928Y550657D01*
X600837Y550649D01*
X600807Y550637D01*
X600775Y550632D01*
X600695Y550589D01*
X600611Y550553D01*
X600579Y550527D01*
X600558Y550516D01*
X600536Y550493D01*
X600480Y550448D01*
X589530Y539498D01*
X589488Y539440D01*
X589439Y539388D01*
X589417Y539341D01*
X589386Y539299D01*
X589365Y539230D01*
X589335Y539165D01*
X589329Y539113D01*
X589314Y539063D01*
X589316Y538992D01*
X589308Y538921D01*
X589319Y538870D01*
X589320Y538818D01*
X589345Y538750D01*
X589360Y538680D01*
X589387Y538635D01*
X589405Y538587D01*
X589450Y538531D01*
X589486Y538469D01*
X589526Y538435D01*
X589558Y538395D01*
X589619Y538356D01*
X589673Y538309D01*
X589722Y538290D01*
X589765Y538262D01*
X589835Y538244D01*
X589901Y538217D01*
X589973Y538209D01*
X590004Y538201D01*
X590027Y538203D01*
X590068Y538199D01*
X591268Y538199D01*
X594079Y535388D01*
X594079Y531412D01*
X592552Y529885D01*
X592499Y529811D01*
X592439Y529742D01*
X592427Y529712D01*
X592408Y529686D01*
X592381Y529599D01*
X592347Y529514D01*
X592343Y529473D01*
X592336Y529450D01*
X592337Y529418D01*
X592329Y529347D01*
X592329Y491497D01*
X568902Y468070D01*
X568849Y467996D01*
X568789Y467927D01*
X568777Y467897D01*
X568758Y467870D01*
X568731Y467783D01*
X568697Y467699D01*
X568693Y467658D01*
X568686Y467635D01*
X568687Y467603D01*
X568679Y467532D01*
X568679Y465372D01*
X565868Y462561D01*
X561892Y462561D01*
X559081Y465372D01*
X559081Y469348D01*
X561155Y471422D01*
X561197Y471480D01*
X561247Y471532D01*
X561268Y471579D01*
X561299Y471621D01*
X561320Y471690D01*
X561350Y471755D01*
X561356Y471807D01*
X561371Y471857D01*
X561369Y471928D01*
X561377Y471999D01*
X561366Y472050D01*
X561365Y472102D01*
X561340Y472170D01*
X561325Y472240D01*
X561298Y472285D01*
X561280Y472333D01*
X561236Y472389D01*
X561199Y472451D01*
X561159Y472485D01*
X561127Y472525D01*
X561066Y472564D01*
X561012Y472611D01*
X560964Y472630D01*
X560920Y472658D01*
X560850Y472676D01*
X560784Y472703D01*
X560712Y472711D01*
X560681Y472719D01*
X560658Y472717D01*
X560617Y472721D01*
X559352Y472721D01*
X556541Y475532D01*
X556541Y477692D01*
X556527Y477782D01*
X556519Y477873D01*
X556507Y477903D01*
X556502Y477935D01*
X556459Y478015D01*
X556423Y478099D01*
X556397Y478131D01*
X556386Y478152D01*
X556363Y478174D01*
X556318Y478230D01*
X547600Y486948D01*
X547526Y487001D01*
X547457Y487061D01*
X547427Y487073D01*
X547400Y487092D01*
X547313Y487119D01*
X547229Y487153D01*
X547188Y487157D01*
X547165Y487164D01*
X547133Y487163D01*
X547062Y487171D01*
X524517Y487171D01*
X504951Y506737D01*
X504951Y521662D01*
X504937Y521752D01*
X504929Y521843D01*
X504917Y521873D01*
X504912Y521905D01*
X504869Y521985D01*
X504833Y522069D01*
X504807Y522101D01*
X504796Y522122D01*
X504773Y522144D01*
X504728Y522200D01*
X501880Y525048D01*
X501806Y525101D01*
X501737Y525161D01*
X501707Y525173D01*
X501680Y525192D01*
X501593Y525219D01*
X501509Y525253D01*
X501468Y525257D01*
X501445Y525264D01*
X501413Y525263D01*
X501342Y525271D01*
X496813Y525271D01*
X496742Y525260D01*
X496671Y525258D01*
X496622Y525240D01*
X496570Y525232D01*
X496507Y525198D01*
X496440Y525173D01*
X496399Y525141D01*
X496353Y525116D01*
X496303Y525064D01*
X496247Y525020D01*
X496219Y524976D01*
X496183Y524938D01*
X496153Y524873D01*
X496114Y524813D01*
X496102Y524762D01*
X496080Y524715D01*
X496072Y524644D01*
X496054Y524574D01*
X496058Y524522D01*
X496053Y524471D01*
X496068Y524400D01*
X496074Y524329D01*
X496094Y524281D01*
X496105Y524230D01*
X496142Y524169D01*
X496170Y524103D01*
X496215Y524047D01*
X496231Y524019D01*
X496238Y524013D01*
X496239Y524011D01*
X496252Y524000D01*
X496275Y523972D01*
X497559Y522688D01*
X497559Y518712D01*
X494748Y515901D01*
X492588Y515901D01*
X492498Y515887D01*
X492407Y515879D01*
X492377Y515867D01*
X492345Y515862D01*
X492265Y515819D01*
X492181Y515783D01*
X492149Y515757D01*
X492128Y515746D01*
X492106Y515723D01*
X492050Y515678D01*
X488412Y512040D01*
X488359Y511966D01*
X488299Y511897D01*
X488287Y511867D01*
X488268Y511840D01*
X488241Y511753D01*
X488207Y511669D01*
X488203Y511628D01*
X488196Y511605D01*
X488197Y511573D01*
X488189Y511502D01*
X488189Y433313D01*
X488200Y433243D01*
X488202Y433173D01*
X488220Y433123D01*
X488228Y433070D01*
X488261Y433008D01*
X488286Y432941D01*
X488319Y432900D01*
X488344Y432853D01*
X488395Y432804D01*
X488439Y432749D01*
X488483Y432720D01*
X488522Y432683D01*
X488586Y432654D01*
X488645Y432615D01*
X488697Y432602D01*
X488745Y432580D01*
X488815Y432572D01*
X488884Y432555D01*
X488937Y432559D01*
X488989Y432553D01*
X489059Y432568D01*
X489129Y432573D01*
X489178Y432594D01*
X489230Y432605D01*
X489290Y432641D01*
X489356Y432669D01*
X489395Y432704D01*
X489441Y432731D01*
X489487Y432785D01*
X489540Y432832D01*
X489580Y432893D01*
X489601Y432918D01*
X489609Y432939D01*
X489631Y432973D01*
X489658Y433061D01*
X489693Y433146D01*
X489697Y433186D01*
X489704Y433207D01*
X489703Y433240D01*
X489711Y433313D01*
X489711Y435603D01*
X514357Y460249D01*
X603007Y460249D01*
X603097Y460263D01*
X603188Y460271D01*
X603218Y460283D01*
X603250Y460288D01*
X603330Y460331D01*
X603414Y460367D01*
X603447Y460393D01*
X603467Y460404D01*
X603489Y460427D01*
X603545Y460472D01*
X605072Y461999D01*
X609048Y461999D01*
X611859Y459188D01*
X611859Y455212D01*
X609048Y452401D01*
X605072Y452401D01*
X603545Y453928D01*
X603471Y453981D01*
X603402Y454041D01*
X603372Y454053D01*
X603346Y454072D01*
X603259Y454099D01*
X603174Y454133D01*
X603133Y454137D01*
X603110Y454144D01*
X603078Y454143D01*
X603007Y454151D01*
X517198Y454151D01*
X517108Y454137D01*
X517017Y454129D01*
X516987Y454117D01*
X516955Y454112D01*
X516875Y454069D01*
X516791Y454033D01*
X516759Y454007D01*
X516738Y453996D01*
X516716Y453973D01*
X516660Y453928D01*
X496307Y433576D01*
X496296Y433560D01*
X496280Y433547D01*
X496224Y433460D01*
X496164Y433376D01*
X496158Y433357D01*
X496147Y433340D01*
X496122Y433240D01*
X496091Y433141D01*
X496092Y433121D01*
X496087Y433102D01*
X496095Y432999D01*
X496098Y432895D01*
X496105Y432876D01*
X496106Y432856D01*
X496147Y432761D01*
X496182Y432664D01*
X496195Y432648D01*
X496202Y432630D01*
X496307Y432499D01*
X497559Y431248D01*
X497559Y429983D01*
X497570Y429912D01*
X497572Y429841D01*
X497590Y429792D01*
X497598Y429740D01*
X497632Y429677D01*
X497657Y429610D01*
X497689Y429569D01*
X497714Y429523D01*
X497766Y429473D01*
X497810Y429417D01*
X497854Y429389D01*
X497892Y429353D01*
X497957Y429323D01*
X498017Y429284D01*
X498068Y429272D01*
X498115Y429250D01*
X498186Y429242D01*
X498256Y429224D01*
X498308Y429228D01*
X498359Y429223D01*
X498430Y429238D01*
X498501Y429244D01*
X498549Y429264D01*
X498600Y429275D01*
X498661Y429312D01*
X498727Y429340D01*
X498783Y429385D01*
X498811Y429401D01*
X498826Y429419D01*
X498858Y429445D01*
X500932Y431519D01*
X504908Y431519D01*
X507719Y428708D01*
X507719Y426548D01*
X507733Y426458D01*
X507741Y426367D01*
X507753Y426337D01*
X507758Y426305D01*
X507801Y426225D01*
X507837Y426141D01*
X507863Y426109D01*
X507874Y426088D01*
X507897Y426066D01*
X507942Y426010D01*
X534440Y399512D01*
X534514Y399459D01*
X534583Y399399D01*
X534613Y399387D01*
X534640Y399368D01*
X534727Y399341D01*
X534811Y399307D01*
X534852Y399303D01*
X534875Y399296D01*
X534907Y399297D01*
X534978Y399289D01*
X635962Y399289D01*
X636052Y399303D01*
X636143Y399311D01*
X636173Y399323D01*
X636205Y399328D01*
X636285Y399371D01*
X636369Y399407D01*
X636401Y399433D01*
X636422Y399444D01*
X636444Y399467D01*
X636500Y399512D01*
X797618Y560630D01*
X797671Y560704D01*
X797731Y560773D01*
X797743Y560803D01*
X797762Y560830D01*
X797789Y560917D01*
X797823Y561001D01*
X797827Y561042D01*
X797834Y561065D01*
X797833Y561097D01*
X797841Y561168D01*
X797841Y563328D01*
X800652Y566139D01*
X804628Y566139D01*
X807439Y563328D01*
X807439Y559352D01*
X804628Y556541D01*
X802468Y556541D01*
X802378Y556527D01*
X802287Y556519D01*
X802257Y556507D01*
X802225Y556502D01*
X802145Y556459D01*
X802061Y556423D01*
X802029Y556397D01*
X802008Y556386D01*
X801986Y556363D01*
X801930Y556318D01*
X638803Y393191D01*
X532137Y393191D01*
X503630Y421698D01*
X503556Y421751D01*
X503487Y421811D01*
X503457Y421823D01*
X503430Y421842D01*
X503343Y421869D01*
X503259Y421903D01*
X503218Y421907D01*
X503195Y421914D01*
X503163Y421913D01*
X503092Y421921D01*
X500932Y421921D01*
X498121Y424732D01*
X498121Y425997D01*
X498110Y426068D01*
X498108Y426139D01*
X498090Y426188D01*
X498082Y426240D01*
X498048Y426303D01*
X498023Y426370D01*
X497991Y426411D01*
X497966Y426457D01*
X497914Y426507D01*
X497870Y426563D01*
X497826Y426591D01*
X497788Y426627D01*
X497723Y426657D01*
X497663Y426696D01*
X497612Y426708D01*
X497565Y426730D01*
X497494Y426738D01*
X497424Y426756D01*
X497372Y426752D01*
X497321Y426757D01*
X497250Y426742D01*
X497179Y426736D01*
X497131Y426716D01*
X497080Y426705D01*
X497019Y426668D01*
X496953Y426640D01*
X496897Y426595D01*
X496869Y426579D01*
X496854Y426561D01*
X496822Y426535D01*
X494748Y424461D01*
X490772Y424461D01*
X489488Y425745D01*
X489430Y425787D01*
X489378Y425837D01*
X489331Y425858D01*
X489289Y425889D01*
X489220Y425910D01*
X489155Y425940D01*
X489103Y425946D01*
X489053Y425961D01*
X488982Y425959D01*
X488911Y425967D01*
X488860Y425956D01*
X488808Y425955D01*
X488740Y425930D01*
X488670Y425915D01*
X488625Y425888D01*
X488577Y425870D01*
X488521Y425826D01*
X488459Y425789D01*
X488425Y425749D01*
X488385Y425717D01*
X488346Y425656D01*
X488299Y425602D01*
X488280Y425554D01*
X488252Y425510D01*
X488234Y425440D01*
X488207Y425374D01*
X488199Y425302D01*
X488191Y425271D01*
X488193Y425248D01*
X488189Y425207D01*
X488189Y334253D01*
X488203Y334163D01*
X488211Y334072D01*
X488223Y334042D01*
X488228Y334010D01*
X488271Y333930D01*
X488307Y333846D01*
X488333Y333814D01*
X488344Y333793D01*
X488367Y333771D01*
X488412Y333715D01*
X489939Y332188D01*
X489939Y328212D01*
X487128Y325401D01*
X483152Y325401D01*
G37*
%LPD*%
%LPC*%
G36*
X656587Y133300D02*
X656587Y133300D01*
X654235Y134275D01*
X652435Y136075D01*
X651460Y138427D01*
X651460Y140973D01*
X652435Y143325D01*
X654235Y145125D01*
X656587Y146100D01*
X657478Y146100D01*
X657568Y146114D01*
X657659Y146122D01*
X657688Y146134D01*
X657720Y146139D01*
X657801Y146182D01*
X657885Y146218D01*
X657917Y146244D01*
X657938Y146255D01*
X657960Y146278D01*
X658016Y146323D01*
X765186Y253493D01*
X858851Y253493D01*
X858941Y253507D01*
X859032Y253515D01*
X859061Y253527D01*
X859093Y253532D01*
X859174Y253575D01*
X859258Y253611D01*
X859290Y253637D01*
X859311Y253648D01*
X859314Y253652D01*
X859315Y253652D01*
X859334Y253672D01*
X859389Y253716D01*
X881995Y276322D01*
X882006Y276338D01*
X882022Y276350D01*
X882078Y276438D01*
X882138Y276521D01*
X882144Y276540D01*
X882155Y276557D01*
X882180Y276658D01*
X882211Y276757D01*
X882210Y276776D01*
X882215Y276796D01*
X882207Y276899D01*
X882204Y277002D01*
X882198Y277021D01*
X882196Y277041D01*
X882156Y277136D01*
X882120Y277233D01*
X882107Y277249D01*
X882100Y277267D01*
X881995Y277398D01*
X871727Y287666D01*
X871727Y347334D01*
X879455Y355062D01*
X879467Y355078D01*
X879482Y355090D01*
X879538Y355178D01*
X879598Y355261D01*
X879604Y355280D01*
X879615Y355297D01*
X879640Y355398D01*
X879671Y355497D01*
X879670Y355516D01*
X879675Y355536D01*
X879667Y355639D01*
X879664Y355742D01*
X879658Y355761D01*
X879656Y355781D01*
X879616Y355876D01*
X879580Y355973D01*
X879567Y355989D01*
X879560Y356007D01*
X879455Y356138D01*
X869187Y366406D01*
X869187Y431154D01*
X879124Y441091D01*
X880725Y442692D01*
X880737Y442708D01*
X880752Y442720D01*
X880808Y442808D01*
X880868Y442891D01*
X880874Y442910D01*
X880885Y442927D01*
X880910Y443028D01*
X880941Y443127D01*
X880940Y443146D01*
X880945Y443166D01*
X880937Y443269D01*
X880934Y443372D01*
X880928Y443391D01*
X880926Y443411D01*
X880886Y443506D01*
X880850Y443603D01*
X880837Y443619D01*
X880830Y443637D01*
X880725Y443768D01*
X869187Y455306D01*
X869187Y514974D01*
X878185Y523972D01*
X878196Y523988D01*
X878212Y524000D01*
X878241Y524046D01*
X878268Y524074D01*
X878286Y524112D01*
X878328Y524171D01*
X878334Y524190D01*
X878345Y524207D01*
X878363Y524278D01*
X878372Y524297D01*
X878374Y524321D01*
X878401Y524407D01*
X878400Y524426D01*
X878405Y524446D01*
X878398Y524536D01*
X878399Y524541D01*
X878397Y524549D01*
X878394Y524652D01*
X878388Y524671D01*
X878386Y524691D01*
X878346Y524786D01*
X878310Y524883D01*
X878297Y524899D01*
X878290Y524917D01*
X878185Y525048D01*
X872089Y531144D01*
X869187Y534046D01*
X869187Y601334D01*
X872343Y604490D01*
X872385Y604548D01*
X872434Y604600D01*
X872456Y604647D01*
X872486Y604689D01*
X872508Y604758D01*
X872538Y604823D01*
X872543Y604875D01*
X872559Y604925D01*
X872557Y604996D01*
X872565Y605067D01*
X872554Y605118D01*
X872552Y605170D01*
X872528Y605238D01*
X872513Y605308D01*
X872486Y605353D01*
X872468Y605401D01*
X872423Y605457D01*
X872386Y605519D01*
X872347Y605553D01*
X872314Y605593D01*
X872254Y605632D01*
X872200Y605679D01*
X872151Y605698D01*
X872107Y605726D01*
X872038Y605744D01*
X871971Y605771D01*
X871900Y605779D01*
X871869Y605787D01*
X871846Y605785D01*
X871805Y605789D01*
X809614Y605789D01*
X809524Y605775D01*
X809433Y605767D01*
X809403Y605755D01*
X809371Y605750D01*
X809290Y605707D01*
X809206Y605671D01*
X809174Y605645D01*
X809154Y605634D01*
X809131Y605611D01*
X809076Y605566D01*
X752532Y549022D01*
X752479Y548949D01*
X752419Y548879D01*
X752407Y548849D01*
X752388Y548823D01*
X752361Y548736D01*
X752327Y548651D01*
X752323Y548610D01*
X752316Y548588D01*
X752317Y548555D01*
X752309Y548484D01*
X752309Y547536D01*
X751464Y545497D01*
X749903Y543936D01*
X747864Y543091D01*
X745656Y543091D01*
X743617Y543936D01*
X742947Y544606D01*
X742873Y544659D01*
X742803Y544719D01*
X742773Y544731D01*
X742747Y544750D01*
X742660Y544777D01*
X742575Y544811D01*
X742534Y544815D01*
X742512Y544822D01*
X742480Y544821D01*
X742408Y544829D01*
X667374Y544829D01*
X667284Y544815D01*
X667193Y544807D01*
X667163Y544795D01*
X667131Y544790D01*
X667050Y544747D01*
X666966Y544711D01*
X666934Y544685D01*
X666914Y544674D01*
X666891Y544651D01*
X666836Y544606D01*
X630612Y508382D01*
X630559Y508309D01*
X630499Y508239D01*
X630487Y508209D01*
X630468Y508183D01*
X630441Y508096D01*
X630407Y508011D01*
X630403Y507970D01*
X630396Y507948D01*
X630397Y507915D01*
X630389Y507844D01*
X630389Y506896D01*
X629544Y504857D01*
X628874Y504187D01*
X628821Y504113D01*
X628761Y504043D01*
X628749Y504013D01*
X628730Y503987D01*
X628703Y503900D01*
X628669Y503815D01*
X628665Y503774D01*
X628658Y503752D01*
X628659Y503720D01*
X628651Y503648D01*
X628651Y476792D01*
X628665Y476702D01*
X628673Y476611D01*
X628685Y476581D01*
X628690Y476549D01*
X628733Y476468D01*
X628769Y476384D01*
X628795Y476352D01*
X628806Y476332D01*
X628829Y476309D01*
X628874Y476253D01*
X629544Y475583D01*
X630389Y473544D01*
X630389Y471336D01*
X629544Y469297D01*
X627983Y467736D01*
X625944Y466891D01*
X623736Y466891D01*
X621697Y467736D01*
X620136Y469297D01*
X619291Y471336D01*
X619291Y473544D01*
X620136Y475583D01*
X620806Y476253D01*
X620859Y476327D01*
X620919Y476397D01*
X620931Y476427D01*
X620950Y476453D01*
X620977Y476540D01*
X621011Y476625D01*
X621015Y476666D01*
X621022Y476688D01*
X621021Y476720D01*
X621029Y476792D01*
X621029Y503648D01*
X621015Y503738D01*
X621007Y503829D01*
X620995Y503859D01*
X620990Y503891D01*
X620947Y503972D01*
X620911Y504056D01*
X620885Y504088D01*
X620874Y504108D01*
X620851Y504131D01*
X620806Y504187D01*
X620136Y504857D01*
X619291Y506896D01*
X619291Y509104D01*
X620136Y511143D01*
X621697Y512704D01*
X623736Y513549D01*
X624684Y513549D01*
X624774Y513563D01*
X624865Y513571D01*
X624895Y513583D01*
X624927Y513588D01*
X625008Y513631D01*
X625092Y513667D01*
X625124Y513693D01*
X625144Y513704D01*
X625167Y513727D01*
X625222Y513772D01*
X663902Y552451D01*
X742408Y552451D01*
X742498Y552465D01*
X742589Y552473D01*
X742619Y552485D01*
X742651Y552490D01*
X742732Y552533D01*
X742816Y552569D01*
X742848Y552595D01*
X742868Y552606D01*
X742891Y552629D01*
X742947Y552674D01*
X743617Y553344D01*
X745656Y554189D01*
X746604Y554189D01*
X746694Y554203D01*
X746785Y554211D01*
X746815Y554223D01*
X746847Y554228D01*
X746928Y554271D01*
X747012Y554307D01*
X747044Y554333D01*
X747064Y554344D01*
X747066Y554345D01*
X747066Y554346D01*
X747087Y554367D01*
X747142Y554412D01*
X806142Y613411D01*
X880949Y613411D01*
X881039Y613425D01*
X881130Y613433D01*
X881159Y613445D01*
X881191Y613450D01*
X881272Y613493D01*
X881356Y613529D01*
X881388Y613555D01*
X881409Y613566D01*
X881431Y613589D01*
X881487Y613634D01*
X882026Y614173D01*
X890647Y614173D01*
X890762Y614192D01*
X890878Y614209D01*
X890884Y614211D01*
X890890Y614212D01*
X890993Y614267D01*
X891097Y614320D01*
X891102Y614325D01*
X891107Y614328D01*
X891188Y614412D01*
X891270Y614496D01*
X891273Y614502D01*
X891277Y614506D01*
X891285Y614523D01*
X891351Y614643D01*
X891407Y614780D01*
X893980Y617353D01*
X897341Y618745D01*
X916219Y618745D01*
X919580Y617353D01*
X922153Y614780D01*
X923545Y611419D01*
X923545Y607781D01*
X922153Y604420D01*
X919580Y601847D01*
X916219Y600455D01*
X897341Y600455D01*
X893980Y601847D01*
X891407Y604420D01*
X891351Y604557D01*
X891289Y604657D01*
X891229Y604757D01*
X891224Y604761D01*
X891221Y604766D01*
X891131Y604841D01*
X891042Y604917D01*
X891036Y604919D01*
X891032Y604923D01*
X890923Y604965D01*
X890814Y605009D01*
X890807Y605010D01*
X890802Y605011D01*
X890784Y605012D01*
X890647Y605027D01*
X886129Y605027D01*
X886039Y605013D01*
X885948Y605005D01*
X885919Y604993D01*
X885887Y604988D01*
X885806Y604945D01*
X885722Y604909D01*
X885690Y604883D01*
X885669Y604872D01*
X885647Y604849D01*
X885591Y604804D01*
X878556Y597769D01*
X878503Y597695D01*
X878443Y597625D01*
X878431Y597595D01*
X878412Y597569D01*
X878385Y597482D01*
X878351Y597397D01*
X878347Y597356D01*
X878340Y597334D01*
X878341Y597302D01*
X878333Y597231D01*
X878333Y538149D01*
X878347Y538059D01*
X878355Y537968D01*
X878367Y537939D01*
X878372Y537907D01*
X878415Y537826D01*
X878451Y537742D01*
X878477Y537710D01*
X878488Y537689D01*
X878511Y537667D01*
X878556Y537611D01*
X885591Y530576D01*
X885665Y530523D01*
X885735Y530463D01*
X885765Y530451D01*
X885791Y530432D01*
X885878Y530405D01*
X885963Y530371D01*
X886004Y530367D01*
X886026Y530360D01*
X886058Y530361D01*
X886129Y530353D01*
X890647Y530353D01*
X890762Y530372D01*
X890878Y530389D01*
X890884Y530391D01*
X890890Y530392D01*
X890993Y530447D01*
X891097Y530500D01*
X891102Y530505D01*
X891107Y530508D01*
X891188Y530592D01*
X891270Y530676D01*
X891273Y530682D01*
X891277Y530686D01*
X891285Y530703D01*
X891351Y530823D01*
X891407Y530960D01*
X893980Y533533D01*
X897341Y534925D01*
X916219Y534925D01*
X919580Y533533D01*
X922153Y530960D01*
X923545Y527599D01*
X923545Y523961D01*
X922153Y520600D01*
X919580Y518027D01*
X916219Y516635D01*
X897341Y516635D01*
X893980Y518027D01*
X891407Y520600D01*
X891351Y520737D01*
X891289Y520837D01*
X891229Y520937D01*
X891224Y520941D01*
X891221Y520946D01*
X891131Y521021D01*
X891042Y521097D01*
X891036Y521099D01*
X891032Y521103D01*
X890923Y521145D01*
X890814Y521189D01*
X890807Y521190D01*
X890802Y521191D01*
X890784Y521192D01*
X890647Y521207D01*
X888669Y521207D01*
X888579Y521193D01*
X888488Y521185D01*
X888459Y521173D01*
X888427Y521168D01*
X888346Y521125D01*
X888262Y521089D01*
X888230Y521063D01*
X888209Y521052D01*
X888187Y521029D01*
X888131Y520984D01*
X878556Y511409D01*
X878503Y511335D01*
X878443Y511265D01*
X878431Y511235D01*
X878412Y511209D01*
X878385Y511122D01*
X878351Y511037D01*
X878347Y510996D01*
X878340Y510974D01*
X878341Y510942D01*
X878333Y510871D01*
X878333Y459409D01*
X878347Y459319D01*
X878355Y459228D01*
X878367Y459199D01*
X878372Y459167D01*
X878415Y459086D01*
X878451Y459002D01*
X878477Y458970D01*
X878488Y458949D01*
X878511Y458927D01*
X878556Y458871D01*
X890309Y447118D01*
X890325Y447106D01*
X890338Y447091D01*
X890425Y447035D01*
X890509Y446974D01*
X890528Y446969D01*
X890544Y446958D01*
X890645Y446932D01*
X890744Y446902D01*
X890764Y446903D01*
X890783Y446898D01*
X890886Y446906D01*
X890990Y446908D01*
X891008Y446915D01*
X891028Y446917D01*
X891123Y446957D01*
X891221Y446993D01*
X891236Y447005D01*
X891254Y447013D01*
X891385Y447118D01*
X891440Y447173D01*
X894801Y448565D01*
X913679Y448565D01*
X917040Y447173D01*
X919613Y444600D01*
X921005Y441239D01*
X921005Y437601D01*
X919613Y434240D01*
X917040Y431667D01*
X913679Y430275D01*
X894801Y430275D01*
X891440Y431667D01*
X888867Y434240D01*
X888811Y434377D01*
X888749Y434477D01*
X888689Y434577D01*
X888684Y434581D01*
X888681Y434586D01*
X888591Y434661D01*
X888502Y434737D01*
X888496Y434739D01*
X888492Y434743D01*
X888383Y434785D01*
X888274Y434829D01*
X888267Y434830D01*
X888262Y434831D01*
X888244Y434832D01*
X888107Y434847D01*
X886129Y434847D01*
X886039Y434833D01*
X885948Y434825D01*
X885919Y434813D01*
X885887Y434808D01*
X885806Y434765D01*
X885722Y434729D01*
X885690Y434703D01*
X885669Y434692D01*
X885647Y434669D01*
X885591Y434624D01*
X878556Y427589D01*
X878512Y427528D01*
X878476Y427490D01*
X878469Y427476D01*
X878443Y427445D01*
X878431Y427415D01*
X878412Y427389D01*
X878385Y427302D01*
X878351Y427217D01*
X878347Y427176D01*
X878340Y427154D01*
X878341Y427122D01*
X878333Y427051D01*
X878333Y370509D01*
X878347Y370419D01*
X878355Y370328D01*
X878367Y370299D01*
X878372Y370267D01*
X878415Y370186D01*
X878451Y370102D01*
X878477Y370070D01*
X878488Y370049D01*
X878511Y370027D01*
X878556Y369971D01*
X885591Y362936D01*
X885665Y362883D01*
X885735Y362823D01*
X885765Y362811D01*
X885791Y362792D01*
X885878Y362765D01*
X885963Y362731D01*
X886004Y362727D01*
X886026Y362720D01*
X886058Y362721D01*
X886129Y362713D01*
X888107Y362713D01*
X888222Y362732D01*
X888338Y362749D01*
X888344Y362751D01*
X888350Y362752D01*
X888453Y362807D01*
X888557Y362860D01*
X888562Y362865D01*
X888567Y362868D01*
X888648Y362952D01*
X888730Y363036D01*
X888733Y363042D01*
X888737Y363046D01*
X888745Y363063D01*
X888811Y363183D01*
X888867Y363320D01*
X891440Y365893D01*
X894801Y367285D01*
X913679Y367285D01*
X917040Y365893D01*
X919613Y363320D01*
X921005Y359959D01*
X921005Y356321D01*
X919613Y352960D01*
X917040Y350387D01*
X913679Y348995D01*
X894801Y348995D01*
X891440Y350387D01*
X890115Y351712D01*
X890099Y351724D01*
X890087Y351739D01*
X890000Y351795D01*
X889916Y351856D01*
X889897Y351861D01*
X889880Y351872D01*
X889779Y351897D01*
X889681Y351928D01*
X889661Y351927D01*
X889641Y351932D01*
X889538Y351924D01*
X889435Y351922D01*
X889416Y351915D01*
X889396Y351913D01*
X889301Y351873D01*
X889204Y351837D01*
X889188Y351825D01*
X889170Y351817D01*
X889039Y351712D01*
X881096Y343769D01*
X881043Y343695D01*
X880983Y343625D01*
X880971Y343595D01*
X880952Y343569D01*
X880925Y343482D01*
X880891Y343397D01*
X880887Y343356D01*
X880880Y343334D01*
X880881Y343302D01*
X880873Y343231D01*
X880873Y291769D01*
X880887Y291679D01*
X880895Y291588D01*
X880907Y291559D01*
X880912Y291527D01*
X880955Y291446D01*
X880991Y291362D01*
X881017Y291330D01*
X881028Y291309D01*
X881051Y291287D01*
X881096Y291231D01*
X890309Y282018D01*
X890325Y282006D01*
X890338Y281991D01*
X890425Y281935D01*
X890509Y281874D01*
X890528Y281869D01*
X890544Y281858D01*
X890645Y281832D01*
X890744Y281802D01*
X890764Y281803D01*
X890783Y281798D01*
X890886Y281806D01*
X890990Y281808D01*
X891008Y281815D01*
X891028Y281817D01*
X891123Y281857D01*
X891221Y281893D01*
X891236Y281905D01*
X891254Y281913D01*
X891385Y282018D01*
X891440Y282073D01*
X894801Y283465D01*
X913679Y283465D01*
X917040Y282073D01*
X919613Y279500D01*
X921005Y276139D01*
X921005Y272501D01*
X919613Y269140D01*
X917040Y266567D01*
X913679Y265175D01*
X894801Y265175D01*
X891440Y266567D01*
X888845Y269162D01*
X888829Y269174D01*
X888817Y269189D01*
X888730Y269245D01*
X888646Y269306D01*
X888627Y269311D01*
X888610Y269322D01*
X888509Y269347D01*
X888411Y269378D01*
X888391Y269377D01*
X888371Y269382D01*
X888268Y269374D01*
X888165Y269372D01*
X888146Y269365D01*
X888126Y269363D01*
X888031Y269323D01*
X887934Y269287D01*
X887918Y269275D01*
X887900Y269267D01*
X887769Y269162D01*
X862954Y244347D01*
X769289Y244347D01*
X769199Y244333D01*
X769108Y244325D01*
X769079Y244313D01*
X769047Y244308D01*
X768966Y244265D01*
X768882Y244229D01*
X768850Y244203D01*
X768829Y244192D01*
X768807Y244169D01*
X768751Y244124D01*
X664483Y139856D01*
X664430Y139782D01*
X664393Y139739D01*
X664391Y139738D01*
X664391Y139737D01*
X664370Y139712D01*
X664358Y139682D01*
X664339Y139656D01*
X664312Y139569D01*
X664307Y139555D01*
X664288Y139514D01*
X664287Y139506D01*
X664278Y139484D01*
X664274Y139443D01*
X664267Y139421D01*
X664268Y139389D01*
X664260Y139318D01*
X664260Y138427D01*
X663285Y136075D01*
X661485Y134275D01*
X659133Y133300D01*
X656587Y133300D01*
G37*
%LPD*%
%LPC*%
G36*
X861612Y333021D02*
X861612Y333021D01*
X858801Y335832D01*
X858801Y337992D01*
X858795Y338027D01*
X858796Y338035D01*
X858788Y338076D01*
X858787Y338082D01*
X858779Y338173D01*
X858767Y338203D01*
X858762Y338235D01*
X858747Y338262D01*
X858744Y338276D01*
X858715Y338324D01*
X858683Y338399D01*
X858657Y338431D01*
X858646Y338452D01*
X858628Y338469D01*
X858618Y338487D01*
X858603Y338500D01*
X858578Y338530D01*
X834620Y362488D01*
X834546Y362541D01*
X834477Y362601D01*
X834447Y362613D01*
X834420Y362632D01*
X834333Y362659D01*
X834249Y362693D01*
X834208Y362697D01*
X834185Y362704D01*
X834153Y362703D01*
X834082Y362711D01*
X496577Y362711D01*
X496010Y363278D01*
X495936Y363331D01*
X495867Y363391D01*
X495837Y363403D01*
X495810Y363422D01*
X495723Y363449D01*
X495639Y363483D01*
X495598Y363487D01*
X495575Y363494D01*
X495543Y363493D01*
X495472Y363501D01*
X493312Y363501D01*
X490501Y366312D01*
X490501Y370288D01*
X493312Y373099D01*
X497052Y373099D01*
X497123Y373110D01*
X497194Y373112D01*
X497243Y373130D01*
X497295Y373138D01*
X497358Y373172D01*
X497425Y373197D01*
X497466Y373229D01*
X497512Y373254D01*
X497561Y373306D01*
X497617Y373350D01*
X497646Y373394D01*
X497681Y373432D01*
X497712Y373497D01*
X497750Y373557D01*
X497763Y373608D01*
X497785Y373655D01*
X497793Y373726D01*
X497810Y373796D01*
X497806Y373848D01*
X497812Y373899D01*
X497797Y373970D01*
X497791Y374041D01*
X497771Y374089D01*
X497760Y374140D01*
X497723Y374201D01*
X497695Y374267D01*
X497650Y374323D01*
X497634Y374351D01*
X497616Y374366D01*
X497590Y374398D01*
X496010Y375978D01*
X495936Y376031D01*
X495867Y376091D01*
X495837Y376103D01*
X495810Y376122D01*
X495723Y376149D01*
X495639Y376183D01*
X495598Y376187D01*
X495575Y376194D01*
X495543Y376193D01*
X495472Y376201D01*
X493312Y376201D01*
X490501Y379012D01*
X490501Y382988D01*
X493312Y385799D01*
X497288Y385799D01*
X500099Y382988D01*
X500099Y380828D01*
X500113Y380738D01*
X500121Y380647D01*
X500133Y380617D01*
X500138Y380585D01*
X500181Y380505D01*
X500217Y380421D01*
X500243Y380389D01*
X500254Y380368D01*
X500277Y380346D01*
X500322Y380290D01*
X503960Y376652D01*
X504034Y376599D01*
X504103Y376539D01*
X504133Y376527D01*
X504160Y376508D01*
X504247Y376481D01*
X504331Y376447D01*
X504372Y376443D01*
X504395Y376436D01*
X504427Y376437D01*
X504498Y376429D01*
X816302Y376429D01*
X816392Y376443D01*
X816483Y376451D01*
X816513Y376463D01*
X816545Y376468D01*
X816625Y376511D01*
X816709Y376547D01*
X816741Y376573D01*
X816762Y376584D01*
X816784Y376607D01*
X816840Y376652D01*
X843338Y403150D01*
X843391Y403224D01*
X843451Y403293D01*
X843463Y403323D01*
X843482Y403350D01*
X843509Y403436D01*
X843543Y403521D01*
X843547Y403562D01*
X843554Y403585D01*
X843553Y403617D01*
X843561Y403688D01*
X843561Y405848D01*
X846372Y408659D01*
X850348Y408659D01*
X853159Y405848D01*
X853159Y401872D01*
X850348Y399061D01*
X848188Y399061D01*
X848098Y399047D01*
X848007Y399039D01*
X847977Y399027D01*
X847945Y399022D01*
X847865Y398979D01*
X847781Y398943D01*
X847749Y398917D01*
X847728Y398906D01*
X847706Y398883D01*
X847650Y398838D01*
X819143Y370331D01*
X501657Y370331D01*
X501398Y370590D01*
X501340Y370632D01*
X501288Y370681D01*
X501241Y370703D01*
X501199Y370734D01*
X501130Y370755D01*
X501065Y370785D01*
X501013Y370791D01*
X500963Y370806D01*
X500892Y370804D01*
X500821Y370812D01*
X500770Y370801D01*
X500718Y370800D01*
X500650Y370775D01*
X500580Y370760D01*
X500535Y370733D01*
X500487Y370715D01*
X500431Y370670D01*
X500369Y370634D01*
X500335Y370594D01*
X500295Y370562D01*
X500256Y370501D01*
X500209Y370447D01*
X500190Y370398D01*
X500162Y370355D01*
X500144Y370285D01*
X500117Y370219D01*
X500109Y370147D01*
X500101Y370116D01*
X500103Y370093D01*
X500099Y370052D01*
X500099Y369570D01*
X500102Y369550D01*
X500100Y369531D01*
X500122Y369429D01*
X500138Y369327D01*
X500148Y369310D01*
X500152Y369290D01*
X500205Y369201D01*
X500254Y369110D01*
X500268Y369096D01*
X500278Y369079D01*
X500357Y369012D01*
X500432Y368940D01*
X500450Y368932D01*
X500465Y368919D01*
X500561Y368880D01*
X500655Y368837D01*
X500675Y368835D01*
X500693Y368827D01*
X500860Y368809D01*
X836923Y368809D01*
X862890Y342842D01*
X862964Y342789D01*
X863033Y342729D01*
X863063Y342717D01*
X863090Y342698D01*
X863177Y342671D01*
X863261Y342637D01*
X863302Y342633D01*
X863325Y342626D01*
X863357Y342627D01*
X863428Y342619D01*
X865588Y342619D01*
X868399Y339808D01*
X868399Y335832D01*
X865588Y333021D01*
X861612Y333021D01*
G37*
%LPD*%
%LPC*%
G36*
X14608Y323595D02*
X14608Y323595D01*
X13715Y324488D01*
X13715Y327483D01*
X13701Y327573D01*
X13693Y327664D01*
X13681Y327693D01*
X13676Y327725D01*
X13633Y327806D01*
X13597Y327890D01*
X13571Y327922D01*
X13560Y327943D01*
X13537Y327965D01*
X13492Y328021D01*
X10444Y331069D01*
X5587Y335926D01*
X5587Y375274D01*
X13492Y383179D01*
X13545Y383253D01*
X13605Y383323D01*
X13617Y383353D01*
X13636Y383379D01*
X13663Y383466D01*
X13697Y383551D01*
X13701Y383592D01*
X13708Y383614D01*
X13707Y383646D01*
X13715Y383717D01*
X13715Y391792D01*
X14608Y392685D01*
X46857Y392685D01*
X46928Y392696D01*
X46999Y392698D01*
X47048Y392716D01*
X47100Y392724D01*
X47163Y392758D01*
X47230Y392783D01*
X47271Y392815D01*
X47317Y392840D01*
X47366Y392892D01*
X47422Y392936D01*
X47450Y392980D01*
X47486Y393018D01*
X47516Y393083D01*
X47555Y393143D01*
X47568Y393194D01*
X47590Y393241D01*
X47598Y393312D01*
X47615Y393382D01*
X47611Y393434D01*
X47617Y393485D01*
X47602Y393556D01*
X47596Y393627D01*
X47576Y393675D01*
X47565Y393726D01*
X47528Y393787D01*
X47500Y393853D01*
X47455Y393909D01*
X47439Y393937D01*
X47421Y393952D01*
X47395Y393984D01*
X45884Y395495D01*
X45001Y397627D01*
X45001Y399933D01*
X45884Y402065D01*
X47515Y403696D01*
X49647Y404579D01*
X51953Y404579D01*
X54085Y403696D01*
X55716Y402065D01*
X56599Y399933D01*
X56599Y397627D01*
X55716Y395495D01*
X54205Y393984D01*
X54163Y393926D01*
X54114Y393874D01*
X54092Y393827D01*
X54061Y393785D01*
X54040Y393716D01*
X54010Y393651D01*
X54004Y393599D01*
X53989Y393549D01*
X53991Y393478D01*
X53983Y393407D01*
X53994Y393356D01*
X53995Y393304D01*
X54020Y393236D01*
X54035Y393166D01*
X54062Y393121D01*
X54080Y393073D01*
X54125Y393017D01*
X54161Y392955D01*
X54201Y392921D01*
X54234Y392881D01*
X54294Y392842D01*
X54348Y392795D01*
X54397Y392776D01*
X54440Y392748D01*
X54510Y392730D01*
X54576Y392703D01*
X54648Y392695D01*
X54679Y392687D01*
X54702Y392689D01*
X54743Y392685D01*
X56512Y392685D01*
X57405Y391792D01*
X57405Y388874D01*
X57408Y388854D01*
X57406Y388835D01*
X57428Y388733D01*
X57444Y388631D01*
X57454Y388614D01*
X57458Y388594D01*
X57511Y388505D01*
X57560Y388414D01*
X57574Y388400D01*
X57584Y388383D01*
X57663Y388316D01*
X57738Y388244D01*
X57756Y388236D01*
X57771Y388223D01*
X57867Y388184D01*
X57961Y388141D01*
X57981Y388139D01*
X57999Y388131D01*
X58166Y388113D01*
X61291Y388113D01*
X61381Y388127D01*
X61472Y388135D01*
X61501Y388147D01*
X61533Y388152D01*
X61614Y388195D01*
X61698Y388231D01*
X61730Y388257D01*
X61751Y388268D01*
X61773Y388291D01*
X61829Y388336D01*
X109504Y436011D01*
X109557Y436085D01*
X109617Y436155D01*
X109629Y436185D01*
X109648Y436211D01*
X109675Y436298D01*
X109709Y436383D01*
X109713Y436424D01*
X109720Y436446D01*
X109719Y436478D01*
X109727Y436549D01*
X109727Y447327D01*
X109713Y447417D01*
X109705Y447508D01*
X109693Y447538D01*
X109688Y447570D01*
X109645Y447650D01*
X109609Y447734D01*
X109583Y447766D01*
X109572Y447787D01*
X109549Y447809D01*
X109504Y447865D01*
X108875Y448495D01*
X107900Y450847D01*
X107900Y453393D01*
X108875Y455745D01*
X110675Y457545D01*
X113027Y458520D01*
X115573Y458520D01*
X117925Y457545D01*
X119725Y455745D01*
X120700Y453393D01*
X120700Y450847D01*
X119725Y448495D01*
X119096Y447865D01*
X119043Y447791D01*
X118983Y447722D01*
X118971Y447692D01*
X118952Y447665D01*
X118925Y447578D01*
X118891Y447494D01*
X118887Y447453D01*
X118880Y447430D01*
X118881Y447398D01*
X118873Y447327D01*
X118873Y432446D01*
X65394Y378967D01*
X58166Y378967D01*
X58146Y378964D01*
X58127Y378966D01*
X58025Y378944D01*
X57923Y378928D01*
X57906Y378918D01*
X57886Y378914D01*
X57797Y378861D01*
X57706Y378812D01*
X57692Y378798D01*
X57675Y378788D01*
X57608Y378709D01*
X57536Y378634D01*
X57528Y378616D01*
X57515Y378601D01*
X57476Y378505D01*
X57433Y378411D01*
X57431Y378391D01*
X57423Y378373D01*
X57405Y378206D01*
X57405Y375288D01*
X56512Y374395D01*
X17957Y374395D01*
X17867Y374381D01*
X17776Y374373D01*
X17747Y374361D01*
X17715Y374356D01*
X17634Y374313D01*
X17550Y374277D01*
X17518Y374251D01*
X17497Y374240D01*
X17475Y374217D01*
X17419Y374172D01*
X14956Y371709D01*
X14903Y371635D01*
X14843Y371565D01*
X14831Y371535D01*
X14812Y371509D01*
X14785Y371422D01*
X14751Y371337D01*
X14747Y371296D01*
X14740Y371274D01*
X14741Y371242D01*
X14733Y371171D01*
X14733Y342646D01*
X14736Y342626D01*
X14734Y342607D01*
X14756Y342505D01*
X14772Y342403D01*
X14782Y342386D01*
X14786Y342366D01*
X14839Y342277D01*
X14888Y342186D01*
X14902Y342172D01*
X14912Y342155D01*
X14991Y342088D01*
X15066Y342016D01*
X15084Y342008D01*
X15099Y341995D01*
X15195Y341956D01*
X15289Y341913D01*
X15309Y341911D01*
X15327Y341903D01*
X15494Y341885D01*
X56512Y341885D01*
X57405Y340992D01*
X57405Y324488D01*
X56512Y323595D01*
X14608Y323595D01*
G37*
%LPD*%
%LPC*%
G36*
X813145Y96301D02*
X813145Y96301D01*
X810041Y99405D01*
X810041Y103795D01*
X811560Y105314D01*
X811608Y105380D01*
X811614Y105386D01*
X811616Y105391D01*
X811673Y105457D01*
X811685Y105487D01*
X811704Y105514D01*
X811731Y105601D01*
X811765Y105685D01*
X811769Y105726D01*
X811776Y105749D01*
X811775Y105781D01*
X811783Y105852D01*
X811783Y115773D01*
X839267Y143257D01*
X876554Y143257D01*
X876574Y143260D01*
X876593Y143258D01*
X876695Y143280D01*
X876797Y143296D01*
X876814Y143306D01*
X876834Y143310D01*
X876923Y143363D01*
X877014Y143412D01*
X877028Y143426D01*
X877045Y143436D01*
X877112Y143515D01*
X877184Y143590D01*
X877192Y143608D01*
X877205Y143623D01*
X877244Y143719D01*
X877287Y143813D01*
X877289Y143833D01*
X877297Y143851D01*
X877315Y144018D01*
X877315Y147952D01*
X878208Y148845D01*
X919226Y148845D01*
X919246Y148848D01*
X919265Y148846D01*
X919367Y148868D01*
X919469Y148884D01*
X919486Y148894D01*
X919506Y148898D01*
X919595Y148951D01*
X919686Y149000D01*
X919700Y149014D01*
X919717Y149024D01*
X919784Y149103D01*
X919856Y149178D01*
X919864Y149196D01*
X919877Y149211D01*
X919916Y149307D01*
X919959Y149401D01*
X919961Y149421D01*
X919969Y149439D01*
X919987Y149606D01*
X919987Y178131D01*
X919982Y178161D01*
X919984Y178173D01*
X919972Y178225D01*
X919965Y178312D01*
X919953Y178341D01*
X919948Y178373D01*
X919935Y178398D01*
X919931Y178413D01*
X919900Y178466D01*
X919869Y178538D01*
X919843Y178570D01*
X919832Y178591D01*
X919816Y178607D01*
X919805Y178624D01*
X919789Y178638D01*
X919764Y178669D01*
X917301Y181132D01*
X917227Y181185D01*
X917157Y181245D01*
X917127Y181257D01*
X917101Y181276D01*
X917014Y181303D01*
X916929Y181337D01*
X916888Y181341D01*
X916866Y181348D01*
X916834Y181347D01*
X916763Y181355D01*
X878208Y181355D01*
X877315Y182248D01*
X877315Y198752D01*
X878208Y199645D01*
X920112Y199645D01*
X921005Y198752D01*
X921005Y190677D01*
X921019Y190587D01*
X921027Y190496D01*
X921039Y190467D01*
X921044Y190435D01*
X921087Y190354D01*
X921123Y190270D01*
X921149Y190238D01*
X921160Y190217D01*
X921183Y190195D01*
X921228Y190139D01*
X929133Y182234D01*
X929133Y142886D01*
X926231Y139984D01*
X921228Y134981D01*
X921175Y134907D01*
X921115Y134837D01*
X921103Y134807D01*
X921084Y134781D01*
X921057Y134694D01*
X921023Y134609D01*
X921019Y134568D01*
X921012Y134546D01*
X921013Y134514D01*
X921005Y134443D01*
X921005Y131448D01*
X920112Y130555D01*
X878208Y130555D01*
X877315Y131448D01*
X877315Y135382D01*
X877312Y135402D01*
X877314Y135421D01*
X877292Y135523D01*
X877276Y135625D01*
X877266Y135642D01*
X877262Y135662D01*
X877209Y135751D01*
X877160Y135842D01*
X877146Y135856D01*
X877136Y135873D01*
X877057Y135940D01*
X876982Y136012D01*
X876964Y136020D01*
X876949Y136033D01*
X876853Y136072D01*
X876759Y136115D01*
X876739Y136117D01*
X876721Y136125D01*
X876554Y136143D01*
X851398Y136143D01*
X851302Y136128D01*
X851205Y136118D01*
X851181Y136108D01*
X851155Y136104D01*
X851070Y136058D01*
X850980Y136018D01*
X850961Y136001D01*
X850938Y135988D01*
X850871Y135918D01*
X850799Y135852D01*
X850787Y135829D01*
X850769Y135810D01*
X850728Y135722D01*
X850681Y135636D01*
X850676Y135611D01*
X850665Y135587D01*
X850654Y135490D01*
X850637Y135394D01*
X850641Y135368D01*
X850638Y135343D01*
X850659Y135248D01*
X850673Y135151D01*
X850685Y135128D01*
X850690Y135102D01*
X850740Y135019D01*
X850784Y134932D01*
X850803Y134913D01*
X850816Y134891D01*
X850890Y134828D01*
X850960Y134760D01*
X850988Y134744D01*
X851003Y134731D01*
X851034Y134719D01*
X851107Y134679D01*
X851645Y134456D01*
X853276Y132825D01*
X854159Y130693D01*
X854159Y128387D01*
X853766Y127437D01*
X853743Y127343D01*
X853715Y127250D01*
X853715Y127223D01*
X853709Y127198D01*
X853719Y127101D01*
X853721Y127004D01*
X853730Y126979D01*
X853733Y126953D01*
X853772Y126864D01*
X853806Y126773D01*
X853822Y126752D01*
X853833Y126728D01*
X853898Y126657D01*
X853959Y126581D01*
X853981Y126566D01*
X853999Y126547D01*
X854084Y126500D01*
X854166Y126448D01*
X854191Y126441D01*
X854214Y126429D01*
X854310Y126411D01*
X854405Y126388D01*
X854431Y126390D01*
X854456Y126385D01*
X854553Y126399D01*
X854650Y126407D01*
X854674Y126417D01*
X854700Y126421D01*
X854787Y126465D01*
X854876Y126503D01*
X854902Y126523D01*
X854919Y126532D01*
X854942Y126556D01*
X855007Y126608D01*
X855235Y126836D01*
X857367Y127719D01*
X859673Y127719D01*
X861805Y126836D01*
X863436Y125205D01*
X864319Y123073D01*
X864319Y120767D01*
X863436Y118635D01*
X861805Y117004D01*
X859673Y116121D01*
X857367Y116121D01*
X855235Y117004D01*
X853604Y118635D01*
X852721Y120767D01*
X852721Y123073D01*
X853114Y124023D01*
X853137Y124117D01*
X853165Y124210D01*
X853165Y124237D01*
X853171Y124262D01*
X853161Y124359D01*
X853159Y124456D01*
X853150Y124481D01*
X853147Y124507D01*
X853108Y124596D01*
X853074Y124687D01*
X853058Y124708D01*
X853047Y124732D01*
X852982Y124803D01*
X852921Y124879D01*
X852899Y124894D01*
X852881Y124913D01*
X852796Y124960D01*
X852714Y125012D01*
X852689Y125019D01*
X852666Y125031D01*
X852570Y125049D01*
X852475Y125072D01*
X852449Y125070D01*
X852424Y125075D01*
X852327Y125061D01*
X852230Y125053D01*
X852206Y125043D01*
X852180Y125039D01*
X852093Y124995D01*
X852004Y124957D01*
X851978Y124937D01*
X851961Y124928D01*
X851938Y124904D01*
X851873Y124852D01*
X851645Y124624D01*
X849513Y123741D01*
X848139Y123741D01*
X848043Y123726D01*
X847946Y123716D01*
X847922Y123706D01*
X847896Y123702D01*
X847810Y123656D01*
X847721Y123616D01*
X847702Y123599D01*
X847679Y123586D01*
X847612Y123516D01*
X847540Y123450D01*
X847527Y123427D01*
X847509Y123408D01*
X847468Y123320D01*
X847421Y123234D01*
X847417Y123209D01*
X847406Y123185D01*
X847395Y123088D01*
X847378Y122992D01*
X847381Y122966D01*
X847378Y122941D01*
X847399Y122846D01*
X847413Y122749D01*
X847425Y122726D01*
X847431Y122700D01*
X847481Y122616D01*
X847525Y122530D01*
X847543Y122512D01*
X847557Y122489D01*
X847631Y122426D01*
X847700Y122358D01*
X847729Y122342D01*
X847744Y122329D01*
X847775Y122317D01*
X847847Y122277D01*
X849105Y121756D01*
X850736Y120125D01*
X851619Y117993D01*
X851619Y115687D01*
X850736Y113555D01*
X849105Y111924D01*
X846973Y111041D01*
X844667Y111041D01*
X842535Y111924D01*
X840904Y113555D01*
X840021Y115687D01*
X840021Y117993D01*
X840904Y120125D01*
X842535Y121756D01*
X844667Y122639D01*
X846041Y122639D01*
X846137Y122654D01*
X846234Y122664D01*
X846258Y122674D01*
X846284Y122678D01*
X846370Y122724D01*
X846459Y122764D01*
X846478Y122781D01*
X846501Y122794D01*
X846568Y122864D01*
X846640Y122930D01*
X846653Y122953D01*
X846671Y122972D01*
X846712Y123060D01*
X846759Y123146D01*
X846763Y123171D01*
X846774Y123195D01*
X846785Y123292D01*
X846802Y123388D01*
X846799Y123414D01*
X846802Y123439D01*
X846781Y123534D01*
X846767Y123631D01*
X846755Y123654D01*
X846749Y123680D01*
X846699Y123764D01*
X846655Y123850D01*
X846637Y123868D01*
X846623Y123891D01*
X846549Y123954D01*
X846480Y124022D01*
X846451Y124038D01*
X846436Y124051D01*
X846405Y124063D01*
X846333Y124103D01*
X845075Y124624D01*
X843444Y126255D01*
X842561Y128387D01*
X842561Y130693D01*
X843444Y132825D01*
X845075Y134456D01*
X845613Y134679D01*
X845696Y134730D01*
X845782Y134776D01*
X845800Y134795D01*
X845822Y134808D01*
X845884Y134883D01*
X845951Y134954D01*
X845962Y134978D01*
X845979Y134998D01*
X846014Y135089D01*
X846055Y135177D01*
X846058Y135203D01*
X846067Y135227D01*
X846071Y135325D01*
X846082Y135421D01*
X846077Y135447D01*
X846078Y135473D01*
X846051Y135567D01*
X846030Y135662D01*
X846016Y135684D01*
X846009Y135709D01*
X845954Y135789D01*
X845904Y135873D01*
X845884Y135890D01*
X845869Y135911D01*
X845791Y135969D01*
X845717Y136033D01*
X845692Y136043D01*
X845672Y136058D01*
X845579Y136088D01*
X845489Y136125D01*
X845456Y136128D01*
X845438Y136134D01*
X845405Y136134D01*
X845322Y136143D01*
X842529Y136143D01*
X842438Y136129D01*
X842348Y136121D01*
X842318Y136109D01*
X842286Y136104D01*
X842205Y136061D01*
X842121Y136025D01*
X842089Y135999D01*
X842068Y135988D01*
X842046Y135965D01*
X841990Y135920D01*
X819120Y113050D01*
X819067Y112976D01*
X819007Y112906D01*
X818995Y112876D01*
X818976Y112850D01*
X818949Y112763D01*
X818915Y112678D01*
X818911Y112637D01*
X818904Y112615D01*
X818905Y112583D01*
X818897Y112511D01*
X818897Y105852D01*
X818911Y105762D01*
X818919Y105671D01*
X818931Y105641D01*
X818936Y105609D01*
X818979Y105529D01*
X819015Y105445D01*
X819041Y105413D01*
X819052Y105392D01*
X819075Y105370D01*
X819120Y105314D01*
X820639Y103795D01*
X820639Y99405D01*
X817535Y96301D01*
X813145Y96301D01*
G37*
%LPD*%
%LPC*%
G36*
X859072Y266981D02*
X859072Y266981D01*
X856261Y269792D01*
X856261Y271952D01*
X856247Y272042D01*
X856239Y272133D01*
X856227Y272163D01*
X856222Y272195D01*
X856179Y272275D01*
X856143Y272359D01*
X856117Y272391D01*
X856106Y272412D01*
X856083Y272434D01*
X856038Y272490D01*
X776200Y352328D01*
X776126Y352381D01*
X776057Y352441D01*
X776027Y352453D01*
X776000Y352472D01*
X775913Y352499D01*
X775829Y352533D01*
X775788Y352537D01*
X775765Y352544D01*
X775733Y352543D01*
X775662Y352551D01*
X522213Y352551D01*
X522123Y352537D01*
X522032Y352529D01*
X522002Y352517D01*
X521970Y352512D01*
X521890Y352469D01*
X521806Y352433D01*
X521774Y352407D01*
X521753Y352396D01*
X521731Y352373D01*
X521675Y352328D01*
X520148Y350801D01*
X516172Y350801D01*
X513361Y353612D01*
X513361Y357588D01*
X516172Y360399D01*
X520148Y360399D01*
X521675Y358872D01*
X521749Y358819D01*
X521818Y358759D01*
X521848Y358747D01*
X521874Y358728D01*
X521961Y358701D01*
X522046Y358667D01*
X522087Y358663D01*
X522110Y358656D01*
X522142Y358657D01*
X522213Y358649D01*
X778503Y358649D01*
X860350Y276802D01*
X860424Y276749D01*
X860493Y276689D01*
X860523Y276677D01*
X860550Y276658D01*
X860637Y276631D01*
X860721Y276597D01*
X860762Y276593D01*
X860785Y276586D01*
X860817Y276587D01*
X860888Y276579D01*
X863048Y276579D01*
X865859Y273768D01*
X865859Y269792D01*
X863048Y266981D01*
X859072Y266981D01*
G37*
%LPD*%
%LPC*%
G36*
X432352Y409221D02*
X432352Y409221D01*
X430825Y410748D01*
X430751Y410801D01*
X430682Y410861D01*
X430652Y410873D01*
X430626Y410892D01*
X430539Y410919D01*
X430454Y410953D01*
X430413Y410957D01*
X430390Y410964D01*
X430358Y410963D01*
X430287Y410971D01*
X321317Y410971D01*
X186130Y546158D01*
X186056Y546211D01*
X185987Y546271D01*
X185957Y546283D01*
X185930Y546302D01*
X185843Y546329D01*
X185759Y546363D01*
X185718Y546367D01*
X185695Y546374D01*
X185663Y546373D01*
X185592Y546381D01*
X183432Y546381D01*
X180621Y549192D01*
X180621Y553168D01*
X183432Y555979D01*
X187408Y555979D01*
X190219Y553168D01*
X190219Y551008D01*
X190233Y550918D01*
X190241Y550827D01*
X190253Y550797D01*
X190258Y550765D01*
X190301Y550685D01*
X190337Y550601D01*
X190363Y550569D01*
X190374Y550548D01*
X190397Y550526D01*
X190442Y550470D01*
X323620Y417292D01*
X323694Y417239D01*
X323763Y417179D01*
X323793Y417167D01*
X323820Y417148D01*
X323907Y417121D01*
X323991Y417087D01*
X324032Y417083D01*
X324055Y417076D01*
X324087Y417077D01*
X324158Y417069D01*
X430287Y417069D01*
X430377Y417083D01*
X430468Y417091D01*
X430498Y417103D01*
X430530Y417108D01*
X430610Y417151D01*
X430694Y417187D01*
X430726Y417213D01*
X430747Y417224D01*
X430769Y417247D01*
X430825Y417292D01*
X432352Y418819D01*
X436328Y418819D01*
X439139Y416008D01*
X439139Y412032D01*
X436328Y409221D01*
X432352Y409221D01*
G37*
%LPD*%
%LPC*%
G36*
X101435Y81978D02*
X101435Y81978D01*
X97024Y83805D01*
X93648Y87181D01*
X91820Y91593D01*
X91820Y92046D01*
X91817Y92066D01*
X91819Y92085D01*
X91797Y92187D01*
X91781Y92289D01*
X91771Y92306D01*
X91767Y92326D01*
X91714Y92415D01*
X91665Y92506D01*
X91651Y92520D01*
X91641Y92537D01*
X91562Y92604D01*
X91487Y92676D01*
X91469Y92684D01*
X91454Y92697D01*
X91358Y92736D01*
X91264Y92779D01*
X91244Y92781D01*
X91226Y92789D01*
X91059Y92807D01*
X76536Y92807D01*
X76516Y92804D01*
X76497Y92806D01*
X76395Y92784D01*
X76293Y92768D01*
X76276Y92758D01*
X76256Y92754D01*
X76167Y92701D01*
X76076Y92652D01*
X76062Y92638D01*
X76045Y92628D01*
X75978Y92549D01*
X75906Y92474D01*
X75898Y92456D01*
X75885Y92441D01*
X75846Y92345D01*
X75803Y92251D01*
X75801Y92231D01*
X75793Y92213D01*
X75775Y92046D01*
X75775Y85748D01*
X74882Y84855D01*
X52118Y84855D01*
X51225Y85748D01*
X51225Y109012D01*
X52118Y109905D01*
X74882Y109905D01*
X75775Y109012D01*
X75775Y102714D01*
X75778Y102694D01*
X75776Y102675D01*
X75798Y102573D01*
X75814Y102471D01*
X75824Y102454D01*
X75828Y102434D01*
X75881Y102345D01*
X75930Y102254D01*
X75944Y102240D01*
X75954Y102223D01*
X76033Y102156D01*
X76108Y102084D01*
X76126Y102076D01*
X76141Y102063D01*
X76237Y102024D01*
X76331Y101981D01*
X76351Y101979D01*
X76369Y101971D01*
X76536Y101953D01*
X94506Y101953D01*
X94596Y101967D01*
X94687Y101975D01*
X94717Y101987D01*
X94749Y101992D01*
X94830Y102035D01*
X94913Y102071D01*
X94946Y102097D01*
X94966Y102108D01*
X94988Y102131D01*
X95044Y102176D01*
X97024Y104155D01*
X101435Y105982D01*
X127165Y105982D01*
X131576Y104155D01*
X134952Y100779D01*
X136780Y96367D01*
X136780Y91593D01*
X134952Y87181D01*
X131576Y83805D01*
X127165Y81978D01*
X101435Y81978D01*
G37*
%LPD*%
%LPC*%
G36*
X52118Y128855D02*
X52118Y128855D01*
X51225Y129748D01*
X51225Y153012D01*
X52118Y153905D01*
X74882Y153905D01*
X75775Y153012D01*
X75775Y146714D01*
X75778Y146694D01*
X75776Y146675D01*
X75798Y146573D01*
X75814Y146471D01*
X75824Y146454D01*
X75828Y146434D01*
X75881Y146345D01*
X75930Y146254D01*
X75944Y146240D01*
X75954Y146223D01*
X76033Y146156D01*
X76108Y146084D01*
X76126Y146076D01*
X76141Y146063D01*
X76237Y146024D01*
X76331Y145981D01*
X76351Y145979D01*
X76369Y145971D01*
X76536Y145953D01*
X91059Y145953D01*
X91079Y145956D01*
X91098Y145954D01*
X91200Y145976D01*
X91302Y145992D01*
X91319Y146002D01*
X91339Y146006D01*
X91428Y146059D01*
X91519Y146108D01*
X91533Y146122D01*
X91550Y146132D01*
X91617Y146211D01*
X91689Y146286D01*
X91697Y146304D01*
X91710Y146319D01*
X91749Y146415D01*
X91792Y146509D01*
X91794Y146529D01*
X91802Y146547D01*
X91820Y146714D01*
X91820Y147167D01*
X93648Y151579D01*
X97024Y154955D01*
X101435Y156782D01*
X127165Y156782D01*
X131576Y154955D01*
X134952Y151579D01*
X136780Y147167D01*
X136780Y142393D01*
X134952Y137981D01*
X131576Y134605D01*
X127165Y132778D01*
X101435Y132778D01*
X97024Y134605D01*
X95044Y136584D01*
X94970Y136637D01*
X94901Y136697D01*
X94871Y136709D01*
X94845Y136728D01*
X94758Y136755D01*
X94673Y136789D01*
X94632Y136793D01*
X94610Y136800D01*
X94577Y136799D01*
X94506Y136807D01*
X76536Y136807D01*
X76516Y136804D01*
X76497Y136806D01*
X76395Y136784D01*
X76293Y136768D01*
X76276Y136758D01*
X76256Y136754D01*
X76167Y136701D01*
X76076Y136652D01*
X76062Y136638D01*
X76045Y136628D01*
X75978Y136549D01*
X75906Y136474D01*
X75898Y136456D01*
X75885Y136441D01*
X75846Y136345D01*
X75803Y136251D01*
X75801Y136231D01*
X75793Y136213D01*
X75775Y136046D01*
X75775Y129748D01*
X74882Y128855D01*
X52118Y128855D01*
G37*
%LPD*%
%LPC*%
G36*
X112971Y586439D02*
X112971Y586439D01*
X106524Y589110D01*
X101590Y594044D01*
X98919Y600491D01*
X98919Y607469D01*
X101590Y613916D01*
X106524Y618850D01*
X112971Y621521D01*
X119949Y621521D01*
X126396Y618850D01*
X131330Y613916D01*
X134001Y607469D01*
X134001Y600491D01*
X131330Y594044D01*
X126396Y589110D01*
X119949Y586439D01*
X112971Y586439D01*
G37*
%LPD*%
%LPC*%
G36*
X101435Y31178D02*
X101435Y31178D01*
X97024Y33005D01*
X93648Y36381D01*
X91820Y40793D01*
X91820Y45567D01*
X93648Y49979D01*
X97024Y53355D01*
X101435Y55182D01*
X127165Y55182D01*
X131576Y53355D01*
X134952Y49979D01*
X136780Y45567D01*
X136780Y40793D01*
X134952Y36381D01*
X131576Y33005D01*
X127165Y31178D01*
X101435Y31178D01*
G37*
%LPD*%
%LPC*%
G36*
X101435Y183578D02*
X101435Y183578D01*
X97024Y185405D01*
X93648Y188781D01*
X91820Y193193D01*
X91820Y197967D01*
X93648Y202379D01*
X97024Y205755D01*
X101435Y207582D01*
X127165Y207582D01*
X131576Y205755D01*
X134952Y202379D01*
X136780Y197967D01*
X136780Y193193D01*
X134952Y188781D01*
X131576Y185405D01*
X127165Y183578D01*
X101435Y183578D01*
G37*
%LPD*%
%LPC*%
G36*
X204928Y11175D02*
X204928Y11175D01*
X196595Y19508D01*
X196595Y31292D01*
X204928Y39625D01*
X216712Y39625D01*
X225045Y31292D01*
X225045Y19508D01*
X216712Y11175D01*
X204928Y11175D01*
G37*
%LPD*%
%LPC*%
G36*
X207991Y61975D02*
X207991Y61975D01*
X202762Y64141D01*
X198761Y68142D01*
X196595Y73371D01*
X196595Y79029D01*
X198761Y84258D01*
X202762Y88259D01*
X207991Y90425D01*
X213649Y90425D01*
X218878Y88259D01*
X222879Y84258D01*
X225045Y79029D01*
X225045Y73371D01*
X222879Y68142D01*
X218878Y64141D01*
X213649Y61975D01*
X207991Y61975D01*
G37*
%LPD*%
%LPC*%
G36*
X572052Y607341D02*
X572052Y607341D01*
X569241Y610152D01*
X569241Y614128D01*
X572052Y616939D01*
X576028Y616939D01*
X577555Y615412D01*
X577629Y615359D01*
X577698Y615299D01*
X577728Y615287D01*
X577754Y615268D01*
X577841Y615241D01*
X577926Y615207D01*
X577967Y615203D01*
X577990Y615196D01*
X578022Y615197D01*
X578093Y615189D01*
X649760Y615189D01*
X649780Y615192D01*
X649799Y615190D01*
X649901Y615212D01*
X650003Y615228D01*
X650020Y615238D01*
X650040Y615242D01*
X650129Y615295D01*
X650220Y615344D01*
X650234Y615358D01*
X650251Y615368D01*
X650318Y615447D01*
X650390Y615522D01*
X650398Y615540D01*
X650411Y615555D01*
X650450Y615651D01*
X650493Y615745D01*
X650495Y615765D01*
X650503Y615783D01*
X650521Y615950D01*
X650521Y616668D01*
X653332Y619479D01*
X657308Y619479D01*
X660119Y616668D01*
X660119Y612692D01*
X657308Y609881D01*
X655148Y609881D01*
X655058Y609867D01*
X654967Y609859D01*
X654937Y609847D01*
X654905Y609842D01*
X654825Y609799D01*
X654741Y609763D01*
X654709Y609737D01*
X654688Y609726D01*
X654666Y609703D01*
X654610Y609658D01*
X654043Y609091D01*
X578093Y609091D01*
X578003Y609077D01*
X577912Y609069D01*
X577882Y609057D01*
X577850Y609052D01*
X577770Y609009D01*
X577686Y608973D01*
X577654Y608947D01*
X577633Y608936D01*
X577611Y608913D01*
X577555Y608868D01*
X576028Y607341D01*
X572052Y607341D01*
G37*
%LPD*%
%LPC*%
G36*
X854161Y653795D02*
X854161Y653795D01*
X850800Y655187D01*
X848227Y657760D01*
X846835Y661121D01*
X846835Y679999D01*
X848227Y683360D01*
X850800Y685933D01*
X854161Y687325D01*
X857799Y687325D01*
X861160Y685933D01*
X863733Y683360D01*
X865125Y679999D01*
X865125Y661121D01*
X863733Y657760D01*
X861160Y655187D01*
X857799Y653795D01*
X854161Y653795D01*
G37*
%LPD*%
%LPC*%
G36*
X828761Y653795D02*
X828761Y653795D01*
X825400Y655187D01*
X822827Y657760D01*
X821435Y661121D01*
X821435Y679999D01*
X822827Y683360D01*
X825400Y685933D01*
X828761Y687325D01*
X832399Y687325D01*
X835760Y685933D01*
X838333Y683360D01*
X839725Y679999D01*
X839725Y661121D01*
X838333Y657760D01*
X835760Y655187D01*
X832399Y653795D01*
X828761Y653795D01*
G37*
%LPD*%
%LPC*%
G36*
X904961Y653795D02*
X904961Y653795D01*
X901600Y655187D01*
X899027Y657760D01*
X897635Y661121D01*
X897635Y679999D01*
X899027Y683360D01*
X901600Y685933D01*
X904961Y687325D01*
X908599Y687325D01*
X911960Y685933D01*
X914533Y683360D01*
X915925Y679999D01*
X915925Y661121D01*
X914533Y657760D01*
X911960Y655187D01*
X908599Y653795D01*
X904961Y653795D01*
G37*
%LPD*%
%LPC*%
G36*
X879561Y653795D02*
X879561Y653795D01*
X876200Y655187D01*
X873627Y657760D01*
X872235Y661121D01*
X872235Y679999D01*
X873627Y683360D01*
X876200Y685933D01*
X879561Y687325D01*
X883199Y687325D01*
X886560Y685933D01*
X889133Y683360D01*
X890525Y679999D01*
X890525Y661121D01*
X889133Y657760D01*
X886560Y655187D01*
X883199Y653795D01*
X879561Y653795D01*
G37*
%LPD*%
%LPC*%
G36*
X897341Y625855D02*
X897341Y625855D01*
X893980Y627247D01*
X891407Y629820D01*
X890015Y633181D01*
X890015Y636819D01*
X891407Y640180D01*
X893980Y642753D01*
X897341Y644145D01*
X916219Y644145D01*
X919580Y642753D01*
X922153Y640180D01*
X923545Y636819D01*
X923545Y633181D01*
X922153Y629820D01*
X919580Y627247D01*
X916219Y625855D01*
X897341Y625855D01*
G37*
%LPD*%
%LPC*%
G36*
X897341Y575055D02*
X897341Y575055D01*
X893980Y576447D01*
X891407Y579020D01*
X890015Y582381D01*
X890015Y586019D01*
X891407Y589380D01*
X893980Y591953D01*
X897341Y593345D01*
X916219Y593345D01*
X919580Y591953D01*
X922153Y589380D01*
X923545Y586019D01*
X923545Y582381D01*
X922153Y579020D01*
X919580Y576447D01*
X916219Y575055D01*
X897341Y575055D01*
G37*
%LPD*%
%LPC*%
G36*
X897341Y542035D02*
X897341Y542035D01*
X893980Y543427D01*
X891407Y546000D01*
X890015Y549361D01*
X890015Y552999D01*
X891407Y556360D01*
X893980Y558933D01*
X897341Y560325D01*
X916219Y560325D01*
X919580Y558933D01*
X922153Y556360D01*
X923545Y552999D01*
X923545Y549361D01*
X922153Y546000D01*
X919580Y543427D01*
X916219Y542035D01*
X897341Y542035D01*
G37*
%LPD*%
%LPC*%
G36*
X894801Y374395D02*
X894801Y374395D01*
X891440Y375787D01*
X888867Y378360D01*
X887475Y381721D01*
X887475Y385359D01*
X888867Y388720D01*
X891440Y391293D01*
X894801Y392685D01*
X913679Y392685D01*
X917040Y391293D01*
X919613Y388720D01*
X921005Y385359D01*
X921005Y381721D01*
X919613Y378360D01*
X917040Y375787D01*
X913679Y374395D01*
X894801Y374395D01*
G37*
%LPD*%
%LPC*%
G36*
X894801Y404875D02*
X894801Y404875D01*
X891440Y406267D01*
X888867Y408840D01*
X887475Y412201D01*
X887475Y415839D01*
X888867Y419200D01*
X891440Y421773D01*
X894801Y423165D01*
X913679Y423165D01*
X917040Y421773D01*
X919613Y419200D01*
X921005Y415839D01*
X921005Y412201D01*
X919613Y408840D01*
X917040Y406267D01*
X913679Y404875D01*
X894801Y404875D01*
G37*
%LPD*%
%LPC*%
G36*
X894801Y290575D02*
X894801Y290575D01*
X891440Y291967D01*
X888867Y294540D01*
X887475Y297901D01*
X887475Y301539D01*
X888867Y304900D01*
X891440Y307473D01*
X894801Y308865D01*
X913679Y308865D01*
X917040Y307473D01*
X919613Y304900D01*
X921005Y301539D01*
X921005Y297901D01*
X919613Y294540D01*
X917040Y291967D01*
X913679Y290575D01*
X894801Y290575D01*
G37*
%LPD*%
%LPC*%
G36*
X894801Y239775D02*
X894801Y239775D01*
X891440Y241167D01*
X888867Y243740D01*
X887475Y247101D01*
X887475Y250739D01*
X888867Y254100D01*
X891440Y256673D01*
X894801Y258065D01*
X913679Y258065D01*
X917040Y256673D01*
X919613Y254100D01*
X921005Y250739D01*
X921005Y247101D01*
X919613Y243740D01*
X917040Y241167D01*
X913679Y239775D01*
X894801Y239775D01*
G37*
%LPD*%
%LPC*%
G36*
X894801Y455675D02*
X894801Y455675D01*
X891440Y457067D01*
X888867Y459640D01*
X887475Y463001D01*
X887475Y466639D01*
X888867Y470000D01*
X891440Y472573D01*
X894801Y473965D01*
X913679Y473965D01*
X917040Y472573D01*
X919613Y470000D01*
X921005Y466639D01*
X921005Y463001D01*
X919613Y459640D01*
X917040Y457067D01*
X913679Y455675D01*
X894801Y455675D01*
G37*
%LPD*%
%LPC*%
G36*
X897341Y491235D02*
X897341Y491235D01*
X893980Y492627D01*
X891407Y495200D01*
X890015Y498561D01*
X890015Y502199D01*
X891407Y505560D01*
X893980Y508133D01*
X897341Y509525D01*
X916219Y509525D01*
X919580Y508133D01*
X922153Y505560D01*
X923545Y502199D01*
X923545Y498561D01*
X922153Y495200D01*
X919580Y492627D01*
X916219Y491235D01*
X897341Y491235D01*
G37*
%LPD*%
%LPC*%
G36*
X894801Y323595D02*
X894801Y323595D01*
X891440Y324987D01*
X888867Y327560D01*
X887475Y330921D01*
X887475Y334559D01*
X888867Y337920D01*
X891440Y340493D01*
X894801Y341885D01*
X913679Y341885D01*
X917040Y340493D01*
X919613Y337920D01*
X921005Y334559D01*
X921005Y330921D01*
X919613Y327560D01*
X917040Y324987D01*
X913679Y323595D01*
X894801Y323595D01*
G37*
%LPD*%
%LPC*%
G36*
X384092Y495581D02*
X384092Y495581D01*
X381281Y498392D01*
X381281Y500552D01*
X381267Y500642D01*
X381259Y500733D01*
X381247Y500763D01*
X381242Y500795D01*
X381199Y500875D01*
X381163Y500959D01*
X381137Y500991D01*
X381126Y501012D01*
X381103Y501034D01*
X381058Y501090D01*
X374880Y507268D01*
X374806Y507321D01*
X374737Y507381D01*
X374707Y507393D01*
X374680Y507412D01*
X374593Y507439D01*
X374509Y507473D01*
X374468Y507477D01*
X374445Y507484D01*
X374413Y507483D01*
X374342Y507491D01*
X331477Y507491D01*
X330910Y508058D01*
X330836Y508111D01*
X330767Y508171D01*
X330737Y508183D01*
X330710Y508202D01*
X330623Y508229D01*
X330539Y508263D01*
X330498Y508267D01*
X330475Y508274D01*
X330443Y508273D01*
X330372Y508281D01*
X328212Y508281D01*
X325401Y511092D01*
X325401Y515068D01*
X328212Y517879D01*
X332188Y517879D01*
X334999Y515068D01*
X334999Y514350D01*
X335002Y514330D01*
X335000Y514311D01*
X335022Y514209D01*
X335038Y514107D01*
X335048Y514090D01*
X335052Y514070D01*
X335105Y513981D01*
X335154Y513890D01*
X335168Y513876D01*
X335178Y513859D01*
X335257Y513792D01*
X335332Y513720D01*
X335350Y513712D01*
X335365Y513699D01*
X335461Y513660D01*
X335555Y513617D01*
X335575Y513615D01*
X335593Y513607D01*
X335760Y513589D01*
X377183Y513589D01*
X385370Y505402D01*
X385444Y505349D01*
X385513Y505289D01*
X385543Y505277D01*
X385570Y505258D01*
X385657Y505231D01*
X385741Y505197D01*
X385782Y505193D01*
X385805Y505186D01*
X385837Y505187D01*
X385908Y505179D01*
X388068Y505179D01*
X390879Y502368D01*
X390879Y498392D01*
X388068Y495581D01*
X384092Y495581D01*
G37*
%LPD*%
%LPC*%
G36*
X831132Y485421D02*
X831132Y485421D01*
X828321Y488232D01*
X828321Y492208D01*
X829848Y493735D01*
X829901Y493809D01*
X829961Y493878D01*
X829973Y493908D01*
X829992Y493934D01*
X830019Y494021D01*
X830053Y494106D01*
X830057Y494147D01*
X830064Y494170D01*
X830063Y494202D01*
X830071Y494273D01*
X830071Y521963D01*
X844646Y536538D01*
X844714Y536567D01*
X844746Y536593D01*
X844767Y536604D01*
X844789Y536627D01*
X844845Y536672D01*
X846372Y538199D01*
X850348Y538199D01*
X853159Y535388D01*
X853159Y531412D01*
X850348Y528601D01*
X846369Y528601D01*
X846362Y528610D01*
X846275Y528666D01*
X846191Y528726D01*
X846172Y528732D01*
X846155Y528743D01*
X846055Y528768D01*
X845956Y528799D01*
X845936Y528798D01*
X845917Y528803D01*
X845814Y528795D01*
X845710Y528792D01*
X845691Y528785D01*
X845672Y528784D01*
X845576Y528743D01*
X845479Y528708D01*
X845464Y528695D01*
X845445Y528688D01*
X845314Y528583D01*
X836392Y519660D01*
X836339Y519586D01*
X836279Y519517D01*
X836267Y519487D01*
X836248Y519460D01*
X836221Y519373D01*
X836187Y519289D01*
X836183Y519248D01*
X836176Y519225D01*
X836177Y519193D01*
X836169Y519122D01*
X836169Y494273D01*
X836183Y494183D01*
X836191Y494092D01*
X836203Y494062D01*
X836208Y494030D01*
X836251Y493950D01*
X836287Y493866D01*
X836313Y493834D01*
X836324Y493813D01*
X836347Y493791D01*
X836392Y493735D01*
X837919Y492208D01*
X837919Y488232D01*
X835108Y485421D01*
X831132Y485421D01*
G37*
%LPD*%
%LPC*%
G36*
X842127Y197401D02*
X842127Y197401D01*
X839995Y198284D01*
X838364Y199915D01*
X837481Y202047D01*
X837481Y204353D01*
X838364Y206485D01*
X839995Y208116D01*
X842127Y208999D01*
X844433Y208999D01*
X846565Y208116D01*
X848196Y206485D01*
X848927Y204720D01*
X848964Y204659D01*
X848994Y204594D01*
X849029Y204556D01*
X849056Y204511D01*
X849112Y204466D01*
X849160Y204413D01*
X849206Y204388D01*
X849246Y204355D01*
X849313Y204329D01*
X849376Y204294D01*
X849427Y204285D01*
X849475Y204266D01*
X849547Y204263D01*
X849618Y204251D01*
X849669Y204258D01*
X849721Y204256D01*
X849790Y204276D01*
X849861Y204286D01*
X849907Y204310D01*
X849957Y204325D01*
X850016Y204365D01*
X850080Y204398D01*
X850117Y204435D01*
X850159Y204465D01*
X850202Y204522D01*
X850252Y204574D01*
X850287Y204636D01*
X850306Y204662D01*
X850313Y204684D01*
X850333Y204720D01*
X851064Y206485D01*
X852695Y208116D01*
X854460Y208847D01*
X854521Y208884D01*
X854586Y208914D01*
X854624Y208949D01*
X854669Y208976D01*
X854714Y209032D01*
X854767Y209080D01*
X854792Y209126D01*
X854825Y209166D01*
X854851Y209233D01*
X854886Y209296D01*
X854895Y209347D01*
X854914Y209395D01*
X854917Y209467D01*
X854929Y209538D01*
X854922Y209589D01*
X854924Y209641D01*
X854904Y209710D01*
X854894Y209781D01*
X854870Y209827D01*
X854855Y209877D01*
X854815Y209936D01*
X854782Y210000D01*
X854745Y210037D01*
X854715Y210079D01*
X854658Y210122D01*
X854607Y210172D01*
X854544Y210207D01*
X854518Y210226D01*
X854496Y210233D01*
X854460Y210253D01*
X852695Y210984D01*
X851064Y212615D01*
X850181Y214747D01*
X850181Y217053D01*
X851064Y219185D01*
X852695Y220816D01*
X854827Y221699D01*
X857133Y221699D01*
X859265Y220816D01*
X860896Y219185D01*
X861779Y217053D01*
X861779Y214747D01*
X860896Y212615D01*
X859265Y210984D01*
X857500Y210253D01*
X857439Y210216D01*
X857374Y210186D01*
X857336Y210151D01*
X857291Y210124D01*
X857246Y210068D01*
X857193Y210020D01*
X857168Y209974D01*
X857135Y209934D01*
X857109Y209867D01*
X857074Y209804D01*
X857065Y209753D01*
X857046Y209705D01*
X857043Y209633D01*
X857031Y209562D01*
X857038Y209511D01*
X857036Y209459D01*
X857056Y209390D01*
X857066Y209319D01*
X857090Y209273D01*
X857105Y209223D01*
X857145Y209164D01*
X857178Y209100D01*
X857215Y209063D01*
X857245Y209021D01*
X857302Y208978D01*
X857354Y208928D01*
X857416Y208893D01*
X857442Y208874D01*
X857464Y208867D01*
X857500Y208847D01*
X859265Y208116D01*
X860896Y206485D01*
X861779Y204353D01*
X861779Y202047D01*
X860896Y199915D01*
X859265Y198284D01*
X857133Y197401D01*
X854827Y197401D01*
X852695Y198284D01*
X851064Y199915D01*
X850333Y201680D01*
X850296Y201741D01*
X850266Y201806D01*
X850231Y201844D01*
X850204Y201889D01*
X850148Y201934D01*
X850100Y201987D01*
X850054Y202012D01*
X850014Y202045D01*
X849947Y202071D01*
X849884Y202106D01*
X849833Y202115D01*
X849785Y202134D01*
X849713Y202137D01*
X849642Y202149D01*
X849591Y202142D01*
X849539Y202144D01*
X849470Y202124D01*
X849399Y202114D01*
X849353Y202090D01*
X849303Y202075D01*
X849244Y202035D01*
X849180Y202002D01*
X849143Y201965D01*
X849101Y201935D01*
X849058Y201878D01*
X849008Y201827D01*
X848973Y201764D01*
X848954Y201738D01*
X848947Y201716D01*
X848927Y201680D01*
X848196Y199915D01*
X846565Y198284D01*
X844433Y197401D01*
X842127Y197401D01*
G37*
%LPD*%
%LPC*%
G36*
X51369Y348233D02*
X51369Y348233D01*
X47728Y349741D01*
X44941Y352528D01*
X43433Y356169D01*
X43433Y360111D01*
X44941Y363752D01*
X47728Y366539D01*
X51369Y368047D01*
X55311Y368047D01*
X58952Y366539D01*
X61739Y363752D01*
X63247Y360111D01*
X63247Y356169D01*
X61739Y352528D01*
X58952Y349741D01*
X55311Y348233D01*
X51369Y348233D01*
G37*
%LPD*%
%LPC*%
G36*
X881949Y155193D02*
X881949Y155193D01*
X878308Y156701D01*
X875521Y159488D01*
X874013Y163129D01*
X874013Y167071D01*
X875521Y170712D01*
X878308Y173499D01*
X881949Y175007D01*
X885891Y175007D01*
X889532Y173499D01*
X892319Y170712D01*
X893827Y167071D01*
X893827Y163129D01*
X892319Y159488D01*
X889532Y156701D01*
X885891Y155193D01*
X881949Y155193D01*
G37*
%LPD*%
%LPC*%
G36*
X533952Y378741D02*
X533952Y378741D01*
X532425Y380268D01*
X532351Y380321D01*
X532282Y380381D01*
X532252Y380393D01*
X532226Y380412D01*
X532139Y380439D01*
X532054Y380473D01*
X532013Y380477D01*
X531990Y380484D01*
X531958Y380483D01*
X531887Y380491D01*
X514357Y380491D01*
X508710Y386138D01*
X508636Y386191D01*
X508567Y386251D01*
X508537Y386263D01*
X508510Y386282D01*
X508423Y386309D01*
X508339Y386343D01*
X508298Y386347D01*
X508275Y386354D01*
X508243Y386353D01*
X508172Y386361D01*
X506012Y386361D01*
X503201Y389172D01*
X503201Y393148D01*
X506012Y395959D01*
X509988Y395959D01*
X512799Y393148D01*
X512799Y390988D01*
X512813Y390898D01*
X512821Y390807D01*
X512833Y390777D01*
X512838Y390745D01*
X512881Y390665D01*
X512917Y390581D01*
X512943Y390549D01*
X512954Y390528D01*
X512977Y390506D01*
X513022Y390450D01*
X516660Y386812D01*
X516734Y386759D01*
X516803Y386699D01*
X516833Y386687D01*
X516860Y386668D01*
X516947Y386641D01*
X517031Y386607D01*
X517072Y386603D01*
X517095Y386596D01*
X517127Y386597D01*
X517198Y386589D01*
X531887Y386589D01*
X531977Y386603D01*
X532068Y386611D01*
X532098Y386623D01*
X532130Y386628D01*
X532210Y386671D01*
X532294Y386707D01*
X532326Y386733D01*
X532347Y386744D01*
X532369Y386767D01*
X532425Y386812D01*
X533952Y388339D01*
X537928Y388339D01*
X540739Y385528D01*
X540739Y381552D01*
X537928Y378741D01*
X533952Y378741D01*
G37*
%LPD*%
%LPC*%
G36*
X625392Y404141D02*
X625392Y404141D01*
X622581Y406952D01*
X622581Y410928D01*
X623833Y412179D01*
X623844Y412195D01*
X623860Y412208D01*
X623916Y412295D01*
X623976Y412379D01*
X623982Y412398D01*
X623993Y412415D01*
X624018Y412515D01*
X624049Y412614D01*
X624048Y412634D01*
X624053Y412653D01*
X624045Y412756D01*
X624042Y412860D01*
X624035Y412879D01*
X624034Y412898D01*
X623993Y412993D01*
X623958Y413091D01*
X623945Y413107D01*
X623938Y413125D01*
X623833Y413256D01*
X610310Y426778D01*
X610236Y426831D01*
X610167Y426891D01*
X610137Y426903D01*
X610110Y426922D01*
X610023Y426949D01*
X609939Y426983D01*
X609898Y426987D01*
X609875Y426994D01*
X609843Y426993D01*
X609772Y427001D01*
X607612Y427001D01*
X604801Y429812D01*
X604801Y433788D01*
X607612Y436599D01*
X611588Y436599D01*
X614399Y433788D01*
X614399Y431628D01*
X614402Y431609D01*
X614400Y431590D01*
X614415Y431521D01*
X614421Y431447D01*
X614433Y431417D01*
X614438Y431385D01*
X614448Y431367D01*
X614452Y431350D01*
X614487Y431291D01*
X614517Y431221D01*
X614543Y431189D01*
X614554Y431168D01*
X614570Y431153D01*
X614578Y431139D01*
X614593Y431126D01*
X614622Y431090D01*
X630429Y415283D01*
X630429Y412993D01*
X630443Y412903D01*
X630451Y412812D01*
X630463Y412782D01*
X630468Y412750D01*
X630511Y412670D01*
X630547Y412586D01*
X630573Y412554D01*
X630584Y412533D01*
X630607Y412511D01*
X630652Y412455D01*
X632179Y410928D01*
X632179Y406952D01*
X629368Y404141D01*
X625392Y404141D01*
G37*
%LPD*%
%LPC*%
G36*
X268413Y12191D02*
X268413Y12191D01*
X263651Y16953D01*
X263651Y23687D01*
X268413Y28449D01*
X275147Y28449D01*
X279909Y23687D01*
X279909Y16953D01*
X275147Y12191D01*
X268413Y12191D01*
G37*
%LPD*%
%LPC*%
G36*
X344613Y12191D02*
X344613Y12191D01*
X339851Y16953D01*
X339851Y23687D01*
X344613Y28449D01*
X351347Y28449D01*
X356109Y23687D01*
X356109Y16953D01*
X351347Y12191D01*
X344613Y12191D01*
G37*
%LPD*%
%LPC*%
G36*
X905627Y205021D02*
X905627Y205021D01*
X903495Y205904D01*
X901864Y207535D01*
X900981Y209667D01*
X900981Y211973D01*
X901864Y214105D01*
X902092Y214333D01*
X902149Y214412D01*
X902211Y214487D01*
X902220Y214511D01*
X902236Y214533D01*
X902264Y214626D01*
X902299Y214717D01*
X902300Y214743D01*
X902308Y214768D01*
X902306Y214865D01*
X902310Y214962D01*
X902302Y214987D01*
X902302Y215013D01*
X902268Y215105D01*
X902241Y215198D01*
X902226Y215220D01*
X902217Y215245D01*
X902156Y215321D01*
X902101Y215401D01*
X902080Y215416D01*
X902064Y215437D01*
X901982Y215489D01*
X901904Y215547D01*
X901879Y215555D01*
X901857Y215570D01*
X901762Y215593D01*
X901670Y215624D01*
X901643Y215623D01*
X901618Y215630D01*
X901521Y215622D01*
X901424Y215621D01*
X901392Y215612D01*
X901373Y215611D01*
X901342Y215598D01*
X901263Y215574D01*
X900313Y215181D01*
X898007Y215181D01*
X895875Y216064D01*
X894244Y217695D01*
X893361Y219827D01*
X893361Y222133D01*
X894244Y224265D01*
X895875Y225896D01*
X898007Y226779D01*
X900313Y226779D01*
X902445Y225896D01*
X904076Y224265D01*
X904959Y222133D01*
X904959Y219827D01*
X904076Y217695D01*
X903848Y217467D01*
X903802Y217403D01*
X903785Y217385D01*
X903780Y217375D01*
X903729Y217313D01*
X903720Y217289D01*
X903704Y217267D01*
X903676Y217174D01*
X903641Y217083D01*
X903640Y217057D01*
X903632Y217032D01*
X903634Y216935D01*
X903630Y216838D01*
X903638Y216813D01*
X903638Y216787D01*
X903672Y216695D01*
X903699Y216602D01*
X903714Y216580D01*
X903723Y216555D01*
X903784Y216479D01*
X903839Y216399D01*
X903860Y216384D01*
X903876Y216363D01*
X903958Y216311D01*
X904036Y216253D01*
X904061Y216245D01*
X904083Y216230D01*
X904178Y216207D01*
X904270Y216176D01*
X904297Y216177D01*
X904322Y216170D01*
X904419Y216178D01*
X904516Y216179D01*
X904548Y216188D01*
X904567Y216189D01*
X904598Y216202D01*
X904677Y216226D01*
X905627Y216619D01*
X907933Y216619D01*
X910065Y215736D01*
X911696Y214105D01*
X912579Y211973D01*
X912579Y209667D01*
X911696Y207535D01*
X910065Y205904D01*
X907933Y205021D01*
X905627Y205021D01*
G37*
%LPD*%
%LPC*%
G36*
X844667Y172001D02*
X844667Y172001D01*
X842535Y172884D01*
X840904Y174515D01*
X840021Y176647D01*
X840021Y178953D01*
X840904Y181085D01*
X842535Y182716D01*
X844667Y183599D01*
X846041Y183599D01*
X846137Y183614D01*
X846234Y183624D01*
X846258Y183634D01*
X846284Y183638D01*
X846370Y183684D01*
X846459Y183724D01*
X846478Y183741D01*
X846501Y183754D01*
X846568Y183824D01*
X846640Y183890D01*
X846653Y183913D01*
X846671Y183932D01*
X846712Y184020D01*
X846759Y184106D01*
X846763Y184131D01*
X846774Y184155D01*
X846785Y184252D01*
X846802Y184348D01*
X846799Y184374D01*
X846802Y184399D01*
X846781Y184494D01*
X846767Y184591D01*
X846755Y184614D01*
X846749Y184640D01*
X846699Y184724D01*
X846655Y184810D01*
X846637Y184828D01*
X846623Y184851D01*
X846549Y184914D01*
X846480Y184982D01*
X846451Y184998D01*
X846436Y185011D01*
X846405Y185023D01*
X846333Y185063D01*
X845075Y185584D01*
X843444Y187215D01*
X842561Y189347D01*
X842561Y191653D01*
X843444Y193785D01*
X845075Y195416D01*
X847207Y196299D01*
X849513Y196299D01*
X851645Y195416D01*
X853276Y193785D01*
X854159Y191653D01*
X854159Y189347D01*
X853276Y187215D01*
X851645Y185584D01*
X849513Y184701D01*
X848139Y184701D01*
X848043Y184686D01*
X847946Y184676D01*
X847922Y184666D01*
X847896Y184662D01*
X847810Y184616D01*
X847721Y184576D01*
X847702Y184559D01*
X847679Y184546D01*
X847612Y184476D01*
X847540Y184410D01*
X847527Y184387D01*
X847509Y184368D01*
X847468Y184280D01*
X847421Y184194D01*
X847417Y184169D01*
X847406Y184145D01*
X847395Y184048D01*
X847378Y183952D01*
X847381Y183926D01*
X847378Y183901D01*
X847399Y183806D01*
X847413Y183709D01*
X847425Y183686D01*
X847431Y183660D01*
X847481Y183576D01*
X847525Y183490D01*
X847543Y183472D01*
X847557Y183449D01*
X847631Y183386D01*
X847700Y183318D01*
X847729Y183302D01*
X847744Y183289D01*
X847775Y183277D01*
X847847Y183237D01*
X849105Y182716D01*
X850736Y181085D01*
X851619Y178953D01*
X851619Y176647D01*
X850736Y174515D01*
X849105Y172884D01*
X846973Y172001D01*
X844667Y172001D01*
G37*
%LPD*%
%LPC*%
G36*
X346638Y420405D02*
X346638Y420405D01*
X345745Y421298D01*
X345745Y434142D01*
X346638Y435035D01*
X359482Y435035D01*
X360375Y434142D01*
X360375Y421298D01*
X359482Y420405D01*
X346638Y420405D01*
G37*
%LPD*%
%LPC*%
G36*
X877500Y70339D02*
X877500Y70339D01*
X874728Y71487D01*
X872607Y73608D01*
X871459Y76380D01*
X871459Y79380D01*
X872607Y82152D01*
X874728Y84273D01*
X877500Y85421D01*
X880500Y85421D01*
X883272Y84273D01*
X885393Y82152D01*
X886541Y79380D01*
X886541Y76380D01*
X885393Y73608D01*
X883272Y71487D01*
X880500Y70339D01*
X877500Y70339D01*
G37*
%LPD*%
%LPC*%
G36*
X877500Y26339D02*
X877500Y26339D01*
X874728Y27487D01*
X872607Y29608D01*
X871459Y32380D01*
X871459Y35380D01*
X872607Y38152D01*
X874728Y40273D01*
X877500Y41421D01*
X880500Y41421D01*
X883272Y40273D01*
X885393Y38152D01*
X886541Y35380D01*
X886541Y32380D01*
X885393Y29608D01*
X883272Y27487D01*
X880500Y26339D01*
X877500Y26339D01*
G37*
%LPD*%
%LPC*%
G36*
X351605Y469205D02*
X351605Y469205D01*
X348917Y470319D01*
X346859Y472377D01*
X345745Y475065D01*
X345745Y477975D01*
X346859Y480663D01*
X348917Y482721D01*
X351605Y483835D01*
X354515Y483835D01*
X357203Y482721D01*
X359261Y480663D01*
X360375Y477975D01*
X360375Y475065D01*
X359261Y472377D01*
X357203Y470319D01*
X354515Y469205D01*
X351605Y469205D01*
G37*
%LPD*%
%LPC*%
G36*
X75047Y311701D02*
X75047Y311701D01*
X72915Y312584D01*
X71284Y314215D01*
X70401Y316347D01*
X70401Y318653D01*
X71284Y320785D01*
X72915Y322416D01*
X75047Y323299D01*
X77353Y323299D01*
X79485Y322416D01*
X81116Y320785D01*
X81999Y318653D01*
X81999Y316347D01*
X81116Y314215D01*
X79485Y312584D01*
X77353Y311701D01*
X75047Y311701D01*
G37*
%LPD*%
%LPC*%
G36*
X105527Y306621D02*
X105527Y306621D01*
X103395Y307504D01*
X101764Y309135D01*
X100881Y311267D01*
X100881Y313573D01*
X101764Y315705D01*
X103395Y317336D01*
X105527Y318219D01*
X107833Y318219D01*
X109965Y317336D01*
X111596Y315705D01*
X112479Y313573D01*
X112479Y311267D01*
X111596Y309135D01*
X109965Y307504D01*
X107833Y306621D01*
X105527Y306621D01*
G37*
%LPD*%
%LPC*%
G36*
X59807Y301541D02*
X59807Y301541D01*
X57675Y302424D01*
X56044Y304055D01*
X55161Y306187D01*
X55161Y308493D01*
X56044Y310625D01*
X57675Y312256D01*
X59807Y313139D01*
X62113Y313139D01*
X64245Y312256D01*
X65876Y310625D01*
X66759Y308493D01*
X66759Y306187D01*
X65876Y304055D01*
X64245Y302424D01*
X62113Y301541D01*
X59807Y301541D01*
G37*
%LPD*%
%LPC*%
G36*
X18151Y423715D02*
X18151Y423715D01*
X16019Y424598D01*
X14388Y426229D01*
X13505Y428361D01*
X13505Y430667D01*
X14388Y432799D01*
X16019Y434430D01*
X18151Y435313D01*
X20457Y435313D01*
X22589Y434430D01*
X24220Y432799D01*
X25103Y430667D01*
X25103Y428361D01*
X24220Y426229D01*
X22589Y424598D01*
X20457Y423715D01*
X18151Y423715D01*
G37*
%LPD*%
%LPC*%
G36*
X34407Y296461D02*
X34407Y296461D01*
X32275Y297344D01*
X30644Y298975D01*
X29761Y301107D01*
X29761Y303413D01*
X30644Y305545D01*
X32275Y307176D01*
X34407Y308059D01*
X36713Y308059D01*
X38845Y307176D01*
X40476Y305545D01*
X41359Y303413D01*
X41359Y301107D01*
X40476Y298975D01*
X38845Y297344D01*
X36713Y296461D01*
X34407Y296461D01*
G37*
%LPD*%
%LPC*%
G36*
X87747Y293921D02*
X87747Y293921D01*
X85615Y294804D01*
X83984Y296435D01*
X83101Y298567D01*
X83101Y300873D01*
X83984Y303005D01*
X85615Y304636D01*
X87747Y305519D01*
X90053Y305519D01*
X92185Y304636D01*
X93816Y303005D01*
X94699Y300873D01*
X94699Y298567D01*
X93816Y296435D01*
X92185Y294804D01*
X90053Y293921D01*
X87747Y293921D01*
G37*
%LPD*%
%LPC*%
G36*
X16627Y286301D02*
X16627Y286301D01*
X14495Y287184D01*
X12864Y288815D01*
X11981Y290947D01*
X11981Y293253D01*
X12864Y295385D01*
X14495Y297016D01*
X16627Y297899D01*
X18933Y297899D01*
X21065Y297016D01*
X22696Y295385D01*
X23579Y293253D01*
X23579Y290947D01*
X22696Y288815D01*
X21065Y287184D01*
X18933Y286301D01*
X16627Y286301D01*
G37*
%LPD*%
%LPC*%
G36*
X72507Y283761D02*
X72507Y283761D01*
X70375Y284644D01*
X68744Y286275D01*
X67861Y288407D01*
X67861Y290713D01*
X68744Y292845D01*
X70375Y294476D01*
X72507Y295359D01*
X74813Y295359D01*
X76945Y294476D01*
X78576Y292845D01*
X79459Y290713D01*
X79459Y288407D01*
X78576Y286275D01*
X76945Y284644D01*
X74813Y283761D01*
X72507Y283761D01*
G37*
%LPD*%
%LPC*%
G36*
X54727Y276141D02*
X54727Y276141D01*
X52595Y277024D01*
X50964Y278655D01*
X50081Y280787D01*
X50081Y283093D01*
X50964Y285225D01*
X52595Y286856D01*
X54727Y287739D01*
X57033Y287739D01*
X59165Y286856D01*
X60796Y285225D01*
X61679Y283093D01*
X61679Y280787D01*
X60796Y278655D01*
X59165Y277024D01*
X57033Y276141D01*
X54727Y276141D01*
G37*
%LPD*%
%LPC*%
G36*
X34407Y271061D02*
X34407Y271061D01*
X32275Y271944D01*
X30644Y273575D01*
X29761Y275707D01*
X29761Y278013D01*
X30644Y280145D01*
X32275Y281776D01*
X34407Y282659D01*
X36713Y282659D01*
X38845Y281776D01*
X40476Y280145D01*
X41359Y278013D01*
X41359Y275707D01*
X40476Y273575D01*
X38845Y271944D01*
X36713Y271061D01*
X34407Y271061D01*
G37*
%LPD*%
%LPC*%
G36*
X19167Y268521D02*
X19167Y268521D01*
X17035Y269404D01*
X15404Y271035D01*
X14521Y273167D01*
X14521Y275473D01*
X15404Y277605D01*
X17035Y279236D01*
X19167Y280119D01*
X21473Y280119D01*
X23605Y279236D01*
X25236Y277605D01*
X26119Y275473D01*
X26119Y273167D01*
X25236Y271035D01*
X23605Y269404D01*
X21473Y268521D01*
X19167Y268521D01*
G37*
%LPD*%
%LPC*%
G36*
X28565Y412285D02*
X28565Y412285D01*
X26433Y413168D01*
X24802Y414799D01*
X23919Y416931D01*
X23919Y419237D01*
X24802Y421369D01*
X26433Y423000D01*
X28565Y423883D01*
X30871Y423883D01*
X33003Y423000D01*
X34634Y421369D01*
X35517Y419237D01*
X35517Y416931D01*
X34634Y414799D01*
X33003Y413168D01*
X30871Y412285D01*
X28565Y412285D01*
G37*
%LPD*%
%LPC*%
G36*
X877687Y215181D02*
X877687Y215181D01*
X875555Y216064D01*
X873924Y217695D01*
X873041Y219827D01*
X873041Y222133D01*
X873924Y224265D01*
X875555Y225896D01*
X877687Y226779D01*
X879993Y226779D01*
X882125Y225896D01*
X883756Y224265D01*
X884639Y222133D01*
X884639Y219827D01*
X883756Y217695D01*
X882125Y216064D01*
X879993Y215181D01*
X877687Y215181D01*
G37*
%LPD*%
%LPC*%
G36*
X125847Y408221D02*
X125847Y408221D01*
X123715Y409104D01*
X122084Y410735D01*
X121201Y412867D01*
X121201Y415173D01*
X122084Y417305D01*
X123715Y418936D01*
X125847Y419819D01*
X128153Y419819D01*
X130285Y418936D01*
X131916Y417305D01*
X132799Y415173D01*
X132799Y412867D01*
X131916Y410735D01*
X130285Y409104D01*
X128153Y408221D01*
X125847Y408221D01*
G37*
%LPD*%
%LPC*%
G36*
X43043Y405173D02*
X43043Y405173D01*
X40911Y406056D01*
X39280Y407687D01*
X38397Y409819D01*
X38397Y412125D01*
X39280Y414257D01*
X40911Y415888D01*
X43043Y416771D01*
X45349Y416771D01*
X47481Y415888D01*
X49112Y414257D01*
X49995Y412125D01*
X49995Y409819D01*
X49112Y407687D01*
X47481Y406056D01*
X45349Y405173D01*
X43043Y405173D01*
G37*
%LPD*%
%LPC*%
G36*
X887847Y205021D02*
X887847Y205021D01*
X885715Y205904D01*
X884084Y207535D01*
X883201Y209667D01*
X883201Y211973D01*
X884084Y214105D01*
X885715Y215736D01*
X887847Y216619D01*
X890153Y216619D01*
X892285Y215736D01*
X893916Y214105D01*
X894799Y211973D01*
X894799Y209667D01*
X893916Y207535D01*
X892285Y205904D01*
X890153Y205021D01*
X887847Y205021D01*
G37*
%LPD*%
%LPC*%
G36*
X62347Y400601D02*
X62347Y400601D01*
X60215Y401484D01*
X58584Y403115D01*
X57701Y405247D01*
X57701Y407553D01*
X58584Y409685D01*
X60215Y411316D01*
X62347Y412199D01*
X64653Y412199D01*
X66785Y411316D01*
X68416Y409685D01*
X69299Y407553D01*
X69299Y405247D01*
X68416Y403115D01*
X66785Y401484D01*
X64653Y400601D01*
X62347Y400601D01*
G37*
%LPD*%
%LPC*%
G36*
X29327Y395521D02*
X29327Y395521D01*
X27195Y396404D01*
X25564Y398035D01*
X24681Y400167D01*
X24681Y402473D01*
X25564Y404605D01*
X27195Y406236D01*
X29327Y407119D01*
X31633Y407119D01*
X33765Y406236D01*
X35396Y404605D01*
X36279Y402473D01*
X36279Y400167D01*
X35396Y398035D01*
X33765Y396404D01*
X31633Y395521D01*
X29327Y395521D01*
G37*
%LPD*%
%LPC*%
G36*
X108067Y390441D02*
X108067Y390441D01*
X105935Y391324D01*
X104304Y392955D01*
X103421Y395087D01*
X103421Y397393D01*
X104304Y399525D01*
X105935Y401156D01*
X108067Y402039D01*
X110373Y402039D01*
X112505Y401156D01*
X114136Y399525D01*
X115019Y397393D01*
X115019Y395087D01*
X114136Y392955D01*
X112505Y391324D01*
X110373Y390441D01*
X108067Y390441D01*
G37*
%LPD*%
%LPC*%
G36*
X128387Y390441D02*
X128387Y390441D01*
X126255Y391324D01*
X124624Y392955D01*
X123741Y395087D01*
X123741Y397393D01*
X124624Y399525D01*
X126255Y401156D01*
X128387Y402039D01*
X130693Y402039D01*
X132825Y401156D01*
X134456Y399525D01*
X135339Y397393D01*
X135339Y395087D01*
X134456Y392955D01*
X132825Y391324D01*
X130693Y390441D01*
X128387Y390441D01*
G37*
%LPD*%
%LPC*%
G36*
X831967Y179621D02*
X831967Y179621D01*
X829835Y180504D01*
X828204Y182135D01*
X827321Y184267D01*
X827321Y186573D01*
X828204Y188705D01*
X829835Y190336D01*
X831967Y191219D01*
X834273Y191219D01*
X836405Y190336D01*
X838036Y188705D01*
X838919Y186573D01*
X838919Y184267D01*
X838036Y182135D01*
X836405Y180504D01*
X834273Y179621D01*
X831967Y179621D01*
G37*
%LPD*%
%LPC*%
G36*
X75047Y370121D02*
X75047Y370121D01*
X72915Y371004D01*
X71284Y372635D01*
X70401Y374767D01*
X70401Y377073D01*
X71284Y379205D01*
X72915Y380836D01*
X75047Y381719D01*
X77353Y381719D01*
X79485Y380836D01*
X81116Y379205D01*
X81999Y377073D01*
X81999Y374767D01*
X81116Y372635D01*
X79485Y371004D01*
X77353Y370121D01*
X75047Y370121D01*
G37*
%LPD*%
%LPC*%
G36*
X826887Y146601D02*
X826887Y146601D01*
X824755Y147484D01*
X823124Y149115D01*
X822241Y151247D01*
X822241Y153553D01*
X823124Y155685D01*
X824755Y157316D01*
X826887Y158199D01*
X829193Y158199D01*
X831325Y157316D01*
X832956Y155685D01*
X833839Y153553D01*
X833839Y151247D01*
X832956Y149115D01*
X831325Y147484D01*
X829193Y146601D01*
X826887Y146601D01*
G37*
%LPD*%
%LPC*%
G36*
X842127Y146601D02*
X842127Y146601D01*
X839995Y147484D01*
X838364Y149115D01*
X837481Y151247D01*
X837481Y153553D01*
X838364Y155685D01*
X839995Y157316D01*
X842127Y158199D01*
X844433Y158199D01*
X846565Y157316D01*
X848196Y155685D01*
X849079Y153553D01*
X849079Y151247D01*
X848196Y149115D01*
X846565Y147484D01*
X844433Y146601D01*
X842127Y146601D01*
G37*
%LPD*%
%LPC*%
G36*
X128387Y367581D02*
X128387Y367581D01*
X126255Y368464D01*
X124624Y370095D01*
X123741Y372227D01*
X123741Y374533D01*
X124624Y376665D01*
X126255Y378296D01*
X128387Y379179D01*
X130693Y379179D01*
X132825Y378296D01*
X134456Y376665D01*
X135339Y374533D01*
X135339Y372227D01*
X134456Y370095D01*
X132825Y368464D01*
X130693Y367581D01*
X128387Y367581D01*
G37*
%LPD*%
%LPC*%
G36*
X905627Y113581D02*
X905627Y113581D01*
X903495Y114464D01*
X901864Y116095D01*
X900981Y118227D01*
X900981Y120533D01*
X901864Y122665D01*
X903495Y124296D01*
X905627Y125179D01*
X907933Y125179D01*
X910065Y124296D01*
X911696Y122665D01*
X912579Y120533D01*
X912579Y118227D01*
X911696Y116095D01*
X910065Y114464D01*
X907933Y113581D01*
X905627Y113581D01*
G37*
%LPD*%
%LPC*%
G36*
X867527Y205021D02*
X867527Y205021D01*
X865395Y205904D01*
X863764Y207535D01*
X862881Y209667D01*
X862881Y211973D01*
X863764Y214105D01*
X865395Y215736D01*
X867527Y216619D01*
X869833Y216619D01*
X871965Y215736D01*
X873596Y214105D01*
X874479Y211973D01*
X874479Y209667D01*
X873596Y207535D01*
X871965Y205904D01*
X869833Y205021D01*
X867527Y205021D01*
G37*
%LPD*%
%LPC*%
G36*
X872607Y113581D02*
X872607Y113581D01*
X870475Y114464D01*
X868844Y116095D01*
X867961Y118227D01*
X867961Y120533D01*
X868844Y122665D01*
X870475Y124296D01*
X872607Y125179D01*
X874913Y125179D01*
X877045Y124296D01*
X878676Y122665D01*
X879559Y120533D01*
X879559Y118227D01*
X878676Y116095D01*
X877045Y114464D01*
X874913Y113581D01*
X872607Y113581D01*
G37*
%LPD*%
%LPC*%
G36*
X880227Y100881D02*
X880227Y100881D01*
X878095Y101764D01*
X876464Y103395D01*
X875581Y105527D01*
X875581Y107833D01*
X876464Y109965D01*
X878095Y111596D01*
X880227Y112479D01*
X882533Y112479D01*
X884665Y111596D01*
X886296Y109965D01*
X887179Y107833D01*
X887179Y105527D01*
X886296Y103395D01*
X884665Y101764D01*
X882533Y100881D01*
X880227Y100881D01*
G37*
%LPD*%
%LPC*%
G36*
X108067Y365041D02*
X108067Y365041D01*
X105935Y365924D01*
X104304Y367555D01*
X103421Y369687D01*
X103421Y371993D01*
X104304Y374125D01*
X105935Y375756D01*
X108067Y376639D01*
X110373Y376639D01*
X112505Y375756D01*
X114136Y374125D01*
X115019Y371993D01*
X115019Y369687D01*
X114136Y367555D01*
X112505Y365924D01*
X110373Y365041D01*
X108067Y365041D01*
G37*
%LPD*%
%LPC*%
G36*
X130927Y347261D02*
X130927Y347261D01*
X128795Y348144D01*
X127164Y349775D01*
X126281Y351907D01*
X126281Y354213D01*
X127164Y356345D01*
X128795Y357976D01*
X130927Y358859D01*
X133233Y358859D01*
X135365Y357976D01*
X136996Y356345D01*
X137879Y354213D01*
X137879Y351907D01*
X136996Y349775D01*
X135365Y348144D01*
X133233Y347261D01*
X130927Y347261D01*
G37*
%LPD*%
%LPC*%
G36*
X105527Y339641D02*
X105527Y339641D01*
X103395Y340524D01*
X101764Y342155D01*
X100881Y344287D01*
X100881Y346593D01*
X101764Y348725D01*
X103395Y350356D01*
X105527Y351239D01*
X107833Y351239D01*
X109965Y350356D01*
X111596Y348725D01*
X112479Y346593D01*
X112479Y344287D01*
X111596Y342155D01*
X109965Y340524D01*
X107833Y339641D01*
X105527Y339641D01*
G37*
%LPD*%
%LPC*%
G36*
X69967Y334561D02*
X69967Y334561D01*
X67835Y335444D01*
X66204Y337075D01*
X65321Y339207D01*
X65321Y341513D01*
X66204Y343645D01*
X67835Y345276D01*
X69967Y346159D01*
X72273Y346159D01*
X74405Y345276D01*
X76036Y343645D01*
X76919Y341513D01*
X76919Y339207D01*
X76036Y337075D01*
X74405Y335444D01*
X72273Y334561D01*
X69967Y334561D01*
G37*
%LPD*%
%LPC*%
G36*
X10531Y436161D02*
X10531Y436161D01*
X8399Y437044D01*
X6768Y438675D01*
X5885Y440807D01*
X5885Y443113D01*
X6768Y445245D01*
X8399Y446876D01*
X10531Y447759D01*
X12837Y447759D01*
X14969Y446876D01*
X16600Y445245D01*
X17483Y443113D01*
X17483Y440807D01*
X16600Y438675D01*
X14969Y437044D01*
X12837Y436161D01*
X10531Y436161D01*
G37*
%LPD*%
%LPC*%
G36*
X118227Y326941D02*
X118227Y326941D01*
X116095Y327824D01*
X114464Y329455D01*
X113581Y331587D01*
X113581Y333893D01*
X114464Y336025D01*
X116095Y337656D01*
X118227Y338539D01*
X120533Y338539D01*
X122665Y337656D01*
X124296Y336025D01*
X125179Y333893D01*
X125179Y331587D01*
X124296Y329455D01*
X122665Y327824D01*
X120533Y326941D01*
X118227Y326941D01*
G37*
%LPD*%
%LPC*%
G36*
X92827Y321861D02*
X92827Y321861D01*
X90695Y322744D01*
X89064Y324375D01*
X88181Y326507D01*
X88181Y328813D01*
X89064Y330945D01*
X90695Y332576D01*
X92827Y333459D01*
X95133Y333459D01*
X97265Y332576D01*
X98896Y330945D01*
X99779Y328813D01*
X99779Y326507D01*
X98896Y324375D01*
X97265Y322744D01*
X95133Y321861D01*
X92827Y321861D01*
G37*
%LPD*%
%LPC*%
G36*
X890387Y113581D02*
X890387Y113581D01*
X888255Y114464D01*
X886624Y116095D01*
X885741Y118227D01*
X885741Y120533D01*
X886624Y122665D01*
X888255Y124296D01*
X890387Y125179D01*
X892693Y125179D01*
X894825Y124296D01*
X896456Y122665D01*
X897339Y120533D01*
X897339Y118227D01*
X896456Y116095D01*
X894825Y114464D01*
X892693Y113581D01*
X890387Y113581D01*
G37*
%LPD*%
D10*
X353060Y427720D03*
D11*
X353060Y476520D03*
D12*
X210820Y76200D03*
D13*
X210820Y25400D03*
D14*
X124778Y195580D02*
X103823Y195580D01*
X103823Y144780D02*
X124778Y144780D01*
X124778Y43180D02*
X103823Y43180D01*
X103823Y93980D02*
X124778Y93980D01*
D15*
X63500Y141380D03*
X63500Y97380D03*
D16*
X347980Y20320D03*
X271780Y20320D03*
D17*
X896620Y414020D02*
X911860Y414020D01*
X911860Y439420D02*
X896620Y439420D01*
X896620Y464820D02*
X911860Y464820D01*
X914400Y500380D02*
X899160Y500380D01*
X899160Y525780D02*
X914400Y525780D01*
X914400Y551180D02*
X899160Y551180D01*
X899160Y584200D02*
X914400Y584200D01*
X914400Y609600D02*
X899160Y609600D01*
X899160Y635000D02*
X914400Y635000D01*
X911860Y332740D02*
X896620Y332740D01*
X896620Y358140D02*
X911860Y358140D01*
X911860Y383540D02*
X896620Y383540D01*
D18*
X899160Y139700D03*
X899160Y190500D03*
D19*
X883920Y165100D03*
X53340Y358140D03*
D18*
X35560Y383540D03*
X35560Y332740D03*
D17*
X830580Y662940D02*
X830580Y678180D01*
X855980Y678180D02*
X855980Y662940D01*
X881380Y662940D02*
X881380Y678180D01*
X906780Y678180D02*
X906780Y662940D01*
X911860Y248920D02*
X896620Y248920D01*
X896620Y274320D02*
X911860Y274320D01*
X911860Y299720D02*
X896620Y299720D01*
D20*
X110900Y97380D02*
X63500Y97380D01*
X110900Y97380D02*
X114300Y93980D01*
D21*
X474980Y444500D03*
D22*
X474980Y408940D01*
X441960Y375920D01*
X401320Y375920D01*
X388620Y388620D01*
D21*
X388620Y388620D03*
D22*
X474980Y444500D02*
X419100Y500380D01*
X419100Y581660D01*
D21*
X419100Y581660D03*
X561340Y477520D03*
D22*
X548640Y490220D01*
X525780Y490220D01*
X508000Y508000D01*
X508000Y523240D01*
X502920Y528320D01*
X426720Y548640D02*
X426720Y574040D01*
X419100Y581660D01*
X447040Y528320D02*
X502920Y528320D01*
X447040Y528320D02*
X426720Y548640D01*
D21*
X833120Y490220D03*
D22*
X833120Y520700D01*
X845820Y533400D01*
X848360Y533400D01*
D21*
X848360Y533400D03*
D23*
X114300Y452120D03*
D20*
X114300Y434340D01*
X63500Y383540D01*
X35560Y383540D01*
X20320Y383540D01*
X10160Y373380D02*
X10160Y337820D01*
X15240Y332740D01*
X35560Y332740D01*
X10160Y373380D02*
X20320Y383540D01*
X899160Y139700D02*
X919480Y139700D01*
X924560Y144780D01*
X924560Y180340D01*
X914400Y190500D01*
X899160Y190500D01*
D24*
X899160Y139700D02*
X840740Y139700D01*
X815340Y114300D01*
D25*
X815340Y101600D03*
D24*
X815340Y114300D01*
D23*
X657860Y139700D03*
D20*
X767080Y248920D01*
X861060Y248920D01*
X886460Y274320D02*
X904240Y274320D01*
X886460Y274320D02*
X861060Y248920D01*
X891540Y274320D02*
X904240Y274320D01*
X891540Y274320D02*
X876300Y289560D01*
X876300Y345440D01*
X889000Y358140D02*
X904240Y358140D01*
X889000Y358140D02*
X876300Y345440D01*
X883920Y358140D02*
X904240Y358140D01*
X883920Y358140D02*
X873760Y368300D01*
X873760Y429260D01*
X883920Y439420D01*
X904240Y439420D01*
X891540Y439420D01*
X873760Y457200D01*
X873760Y513080D01*
X886460Y525780D01*
X906780Y525780D01*
X883920Y525780D01*
X873760Y535940D01*
X873760Y599440D01*
X883920Y609600D01*
X906780Y609600D01*
D26*
X807720Y609600D01*
X746760Y548640D01*
D27*
X746760Y548640D03*
D26*
X665480Y548640D01*
X624840Y508000D01*
D27*
X624840Y508000D03*
D26*
X624840Y472440D01*
D27*
X624840Y472440D03*
D21*
X477520Y535940D03*
D22*
X441960Y571500D01*
X441960Y640080D01*
D21*
X441960Y640080D03*
X574040Y612140D03*
D22*
X652780Y612140D01*
X655320Y614680D01*
D21*
X655320Y614680D03*
D20*
X110900Y141380D02*
X63500Y141380D01*
X110900Y141380D02*
X114300Y144780D01*
D21*
X386080Y500380D03*
D22*
X375920Y510540D01*
X332740Y510540D01*
X330200Y513080D01*
D21*
X330200Y513080D03*
X485140Y330200D03*
D22*
X485140Y513080D01*
X492760Y520700D01*
D21*
X492760Y520700D03*
X535940Y383540D03*
D22*
X515620Y383540D01*
X508000Y391160D01*
D21*
X508000Y391160D03*
X627380Y408940D03*
D22*
X627380Y414020D01*
X609600Y431800D01*
D21*
X609600Y431800D03*
X495300Y614680D03*
D28*
X561340Y680720D01*
X695960Y680720D01*
D21*
X695960Y680720D03*
X571500Y538480D03*
D28*
X495300Y614680D01*
D21*
X589280Y533400D03*
D22*
X589280Y492760D01*
X563880Y467360D01*
D21*
X563880Y467360D03*
X619760Y553720D03*
D22*
X599440Y553720D01*
X556260Y510540D01*
X528320Y510540D01*
D21*
X528320Y510540D03*
X185420Y551180D03*
D22*
X322580Y414020D01*
X434340Y414020D01*
D21*
X434340Y414020D03*
X251460Y469900D03*
D22*
X325120Y396240D01*
X436880Y396240D01*
D21*
X436880Y396240D03*
X863600Y337820D03*
D22*
X835660Y365760D01*
X497840Y365760D02*
X495300Y368300D01*
X497840Y365760D02*
X835660Y365760D01*
D21*
X495300Y368300D03*
X848360Y403860D03*
D22*
X817880Y373380D01*
X502920Y373380D02*
X495300Y381000D01*
X502920Y373380D02*
X817880Y373380D01*
D21*
X495300Y381000D03*
X607060Y457200D03*
D22*
X515620Y457200D01*
X492760Y434340D01*
X492760Y429260D01*
D21*
X492760Y429260D03*
X802640Y561340D03*
D22*
X637540Y396240D01*
X533400Y396240D02*
X502920Y426720D01*
X533400Y396240D02*
X637540Y396240D01*
D21*
X502920Y426720D03*
X861060Y271780D03*
D22*
X777240Y355600D01*
X518160Y355600D01*
D21*
X518160Y355600D03*
D29*
X35560Y302260D03*
X60960Y307340D03*
X76200Y317500D03*
X93980Y327660D03*
X106680Y345440D03*
X109220Y370840D03*
X109220Y396240D03*
X44196Y410972D03*
X63500Y406400D03*
X29718Y418084D03*
X19304Y429514D03*
X11684Y441960D03*
X20320Y274320D03*
X35560Y276860D03*
X17780Y292100D03*
X55880Y281940D03*
X73660Y289560D03*
X88900Y299720D03*
X106680Y312420D03*
X119380Y332740D03*
X132080Y353060D03*
X129540Y373380D03*
X129540Y396240D03*
X127000Y414020D03*
X71120Y340360D03*
X76200Y375920D03*
X30480Y401320D03*
X50800Y398780D03*
X906780Y210820D03*
X889000Y210820D03*
X868680Y210820D03*
X855980Y203200D03*
X848360Y190500D03*
X845820Y177800D03*
X843280Y152400D03*
X848360Y129540D03*
X858520Y121920D03*
X873760Y119380D03*
X891540Y119380D03*
X906780Y119380D03*
X899160Y220980D03*
X878840Y220980D03*
X855980Y215900D03*
X843280Y203200D03*
X833120Y185420D03*
X828040Y152400D03*
X845820Y116840D03*
X881380Y106680D03*
M02*
