G04 EAGLE Gerber RS-274X export*
G75*
%MOMM*%
%FSLAX34Y34*%
%LPD*%
%IN*%
%IPPOS*%
%AMOC8*
5,1,8,0,0,1.08239X$1,22.5*%
G01*
%ADD10C,0.254000*%


D10*
X0Y-2540D02*
X937060Y-2540D01*
X937060Y710440D01*
X0Y710440D01*
X0Y-2540D01*
X116996Y618980D02*
X118064Y618904D01*
X119125Y618751D01*
X120172Y618523D01*
X121200Y618221D01*
X122204Y617847D01*
X123179Y617402D01*
X124119Y616888D01*
X125020Y616309D01*
X125878Y615667D01*
X126688Y614965D01*
X127445Y614208D01*
X128147Y613398D01*
X128789Y612540D01*
X129368Y611639D01*
X129882Y610699D01*
X130327Y609724D01*
X130701Y608720D01*
X131003Y607692D01*
X131231Y606645D01*
X131384Y605584D01*
X131460Y604516D01*
X131460Y603444D01*
X131384Y602376D01*
X131231Y601315D01*
X131003Y600268D01*
X130701Y599240D01*
X130327Y598236D01*
X129882Y597261D01*
X129368Y596321D01*
X128789Y595420D01*
X128147Y594562D01*
X127445Y593752D01*
X126688Y592995D01*
X125878Y592293D01*
X125020Y591651D01*
X124119Y591072D01*
X123179Y590558D01*
X122204Y590113D01*
X121200Y589739D01*
X120172Y589437D01*
X119125Y589209D01*
X118064Y589056D01*
X116996Y588980D01*
X115924Y588980D01*
X114856Y589056D01*
X113795Y589209D01*
X112748Y589437D01*
X111720Y589739D01*
X110716Y590113D01*
X109741Y590558D01*
X108801Y591072D01*
X107900Y591651D01*
X107042Y592293D01*
X106232Y592995D01*
X105475Y593752D01*
X104773Y594562D01*
X104131Y595420D01*
X103552Y596321D01*
X103038Y597261D01*
X102593Y598236D01*
X102219Y599240D01*
X101917Y600268D01*
X101689Y601315D01*
X101536Y602376D01*
X101460Y603444D01*
X101460Y604516D01*
X101536Y605584D01*
X101689Y606645D01*
X101917Y607692D01*
X102219Y608720D01*
X102593Y609724D01*
X103038Y610699D01*
X103552Y611639D01*
X104131Y612540D01*
X104773Y613398D01*
X105475Y614208D01*
X106232Y614965D01*
X107042Y615667D01*
X107900Y616309D01*
X108801Y616888D01*
X109741Y617402D01*
X110716Y617847D01*
X111720Y618221D01*
X112748Y618523D01*
X113795Y618751D01*
X114856Y618904D01*
X115924Y618980D01*
X116996Y618980D01*
X879281Y38880D02*
X879839Y38817D01*
X880386Y38692D01*
X880916Y38507D01*
X881422Y38263D01*
X881898Y37964D01*
X882337Y37614D01*
X882734Y37217D01*
X883084Y36778D01*
X883383Y36302D01*
X883627Y35796D01*
X883812Y35266D01*
X883937Y34719D01*
X884000Y34161D01*
X884000Y33599D01*
X883937Y33041D01*
X883812Y32494D01*
X883627Y31964D01*
X883383Y31458D01*
X883084Y30982D01*
X882734Y30543D01*
X882337Y30146D01*
X881898Y29796D01*
X881422Y29497D01*
X880916Y29253D01*
X880386Y29068D01*
X879839Y28943D01*
X879281Y28880D01*
X878719Y28880D01*
X878161Y28943D01*
X877614Y29068D01*
X877084Y29253D01*
X876578Y29497D01*
X876102Y29796D01*
X875663Y30146D01*
X875266Y30543D01*
X874916Y30982D01*
X874617Y31458D01*
X874373Y31964D01*
X874188Y32494D01*
X874063Y33041D01*
X874000Y33599D01*
X874000Y34161D01*
X874063Y34719D01*
X874188Y35266D01*
X874373Y35796D01*
X874617Y36302D01*
X874916Y36778D01*
X875266Y37217D01*
X875663Y37614D01*
X876102Y37964D01*
X876578Y38263D01*
X877084Y38507D01*
X877614Y38692D01*
X878161Y38817D01*
X878719Y38880D01*
X879281Y38880D01*
X879281Y82880D02*
X879839Y82817D01*
X880386Y82692D01*
X880916Y82507D01*
X881422Y82263D01*
X881898Y81964D01*
X882337Y81614D01*
X882734Y81217D01*
X883084Y80778D01*
X883383Y80302D01*
X883627Y79796D01*
X883812Y79266D01*
X883937Y78719D01*
X884000Y78161D01*
X884000Y77599D01*
X883937Y77041D01*
X883812Y76494D01*
X883627Y75964D01*
X883383Y75458D01*
X883084Y74982D01*
X882734Y74543D01*
X882337Y74146D01*
X881898Y73796D01*
X881422Y73497D01*
X880916Y73253D01*
X880386Y73068D01*
X879839Y72943D01*
X879281Y72880D01*
X878719Y72880D01*
X878161Y72943D01*
X877614Y73068D01*
X877084Y73253D01*
X876578Y73497D01*
X876102Y73796D01*
X875663Y74146D01*
X875266Y74543D01*
X874916Y74982D01*
X874617Y75458D01*
X874373Y75964D01*
X874188Y76494D01*
X874063Y77041D01*
X874000Y77599D01*
X874000Y78161D01*
X874063Y78719D01*
X874188Y79266D01*
X874373Y79796D01*
X874617Y80302D01*
X874916Y80778D01*
X875266Y81217D01*
X875663Y81614D01*
X876102Y81964D01*
X876578Y82263D01*
X877084Y82507D01*
X877614Y82692D01*
X878161Y82817D01*
X878719Y82880D01*
X879281Y82880D01*
M02*
