G04 EAGLE Gerber RS-274X export*
G75*
%MOMM*%
%FSLAX34Y34*%
%LPD*%
%INSoldermask Top*%
%IPNEG*%
%AMOC8*
5,1,8,0,0,1.08239X$1,22.5*%
G01*
%ADD10R,1.101600X1.201600*%
%ADD11R,1.259600X1.259600*%
%ADD12C,1.259600*%
%ADD13R,1.201600X1.101600*%
%ADD14R,1.117600X2.794000*%
%ADD15R,10.261600X9.042400*%
%ADD16C,2.641600*%
%ADD17P,2.859241X8X292.500000*%
%ADD18R,1.371600X1.571600*%
%ADD19R,4.401600X2.601600*%
%ADD20R,1.601600X1.401600*%
%ADD21R,1.401600X1.601600*%
%ADD22C,2.197100*%
%ADD23C,0.237266*%
%ADD24C,0.296434*%
%ADD25R,2.601600X4.601600*%
%ADD26R,1.301600X1.301600*%
%ADD27R,5.301600X3.951600*%
%ADD28R,1.571600X1.371600*%
%ADD29P,1.539592X8X202.500000*%
%ADD30R,0.901600X1.001600*%
%ADD31R,1.901600X1.701600*%
%ADD32R,1.576600X0.401600*%
%ADD33R,0.401600X1.576600*%
%ADD34R,2.001600X1.401600*%
%ADD35R,0.801600X1.201600*%
%ADD36R,3.101600X0.991600*%
%ADD37C,0.355600*%
%ADD38R,2.717800X2.717800*%
%ADD39R,1.371600X0.736600*%
%ADD40R,0.601600X1.301600*%
%ADD41R,1.001600X0.801600*%
%ADD42R,0.801600X1.001600*%
%ADD43R,1.701600X1.501600*%
%ADD44R,1.101600X0.521600*%
%ADD45R,0.521600X1.101600*%
%ADD46R,1.101600X2.101600*%
%ADD47C,3.101600*%
%ADD48R,1.601600X1.341600*%
%ADD49R,1.451600X0.901600*%
%ADD50R,1.341600X1.601600*%
%ADD51C,1.625600*%
%ADD52R,0.901600X2.101600*%
%ADD53R,4.165600X1.625600*%
%ADD54R,2.133600X1.117600*%
%ADD55R,2.336800X0.914400*%
%ADD56C,1.778000*%
%ADD57R,2.501600X2.101600*%
%ADD58R,2.409600X0.601600*%
%ADD59C,1.101600*%


D10*
X302260Y473320D03*
X302260Y456320D03*
X302260Y410600D03*
X302260Y427600D03*
D11*
X353060Y427720D03*
D12*
X353060Y476520D03*
D13*
X274320Y436000D03*
X274320Y453000D03*
D14*
X207264Y176276D03*
X224282Y176276D03*
X241300Y176276D03*
X258318Y176276D03*
X275336Y176276D03*
D15*
X241300Y268224D03*
D16*
X210820Y76200D03*
D17*
X210820Y25400D03*
D18*
X255180Y124460D03*
X212180Y124460D03*
D19*
X463140Y60960D03*
X380140Y60960D03*
D20*
X279400Y123800D03*
X279400Y104800D03*
D21*
X398120Y134620D03*
X379120Y134620D03*
D22*
X124778Y195580D02*
X103823Y195580D01*
X103823Y144780D02*
X124778Y144780D01*
X124778Y43180D02*
X103823Y43180D01*
X103823Y93980D02*
X124778Y93980D01*
D23*
X481378Y229748D02*
X481378Y237692D01*
X493122Y237692D01*
X493122Y229748D01*
X481378Y229748D01*
X481378Y232002D02*
X493122Y232002D01*
X493122Y234256D02*
X481378Y234256D01*
X481378Y236510D02*
X493122Y236510D01*
X481378Y214792D02*
X481378Y206848D01*
X481378Y214792D02*
X493122Y214792D01*
X493122Y206848D01*
X481378Y206848D01*
X481378Y209102D02*
X493122Y209102D01*
X493122Y211356D02*
X481378Y211356D01*
X481378Y213610D02*
X493122Y213610D01*
X481378Y191892D02*
X481378Y183948D01*
X481378Y191892D02*
X493122Y191892D01*
X493122Y183948D01*
X481378Y183948D01*
X481378Y186202D02*
X493122Y186202D01*
X493122Y188456D02*
X481378Y188456D01*
X481378Y190710D02*
X493122Y190710D01*
D24*
X548574Y195594D02*
X548574Y226046D01*
X559726Y226046D01*
X559726Y195594D01*
X548574Y195594D01*
X548574Y198410D02*
X559726Y198410D01*
X559726Y201226D02*
X548574Y201226D01*
X548574Y204042D02*
X559726Y204042D01*
X559726Y206858D02*
X548574Y206858D01*
X548574Y209674D02*
X559726Y209674D01*
X559726Y212490D02*
X548574Y212490D01*
X548574Y215306D02*
X559726Y215306D01*
X559726Y218122D02*
X548574Y218122D01*
X548574Y220938D02*
X559726Y220938D01*
X559726Y223754D02*
X548574Y223754D01*
D25*
X601980Y123740D03*
X601980Y33740D03*
D21*
X448920Y134620D03*
X429920Y134620D03*
D26*
X513420Y140970D03*
X492420Y140970D03*
D21*
X493420Y101600D03*
X512420Y101600D03*
D27*
X386080Y288760D03*
X386080Y188760D03*
D28*
X165100Y135800D03*
X165100Y92800D03*
D20*
X279400Y59080D03*
X279400Y78080D03*
D21*
X314350Y58420D03*
X333350Y58420D03*
D20*
X309880Y144120D03*
X309880Y125120D03*
D29*
X347980Y20320D03*
X271780Y20320D03*
D30*
X333350Y100170D03*
X314350Y100170D03*
X323850Y79170D03*
D31*
X513080Y34260D03*
X513080Y62260D03*
D32*
X458000Y477080D03*
X458000Y472080D03*
X458000Y467080D03*
X458000Y462080D03*
X458000Y457080D03*
X458000Y452080D03*
X458000Y447080D03*
X458000Y442080D03*
X458000Y437080D03*
X458000Y432080D03*
X458000Y427080D03*
X458000Y422080D03*
D33*
X472880Y407200D03*
X477880Y407200D03*
X482880Y407200D03*
X487880Y407200D03*
X492880Y407200D03*
X497880Y407200D03*
X502880Y407200D03*
X507880Y407200D03*
X512880Y407200D03*
X517880Y407200D03*
X522880Y407200D03*
X527880Y407200D03*
D32*
X542760Y422080D03*
X542760Y427080D03*
X542760Y432080D03*
X542760Y437080D03*
X542760Y442080D03*
X542760Y447080D03*
X542760Y452080D03*
X542760Y457080D03*
X542760Y462080D03*
X542760Y467080D03*
X542760Y472080D03*
X542760Y477080D03*
D33*
X527880Y491960D03*
X522880Y491960D03*
X517880Y491960D03*
X512880Y491960D03*
X507880Y491960D03*
X502880Y491960D03*
X497880Y491960D03*
X492880Y491960D03*
X487880Y491960D03*
X482880Y491960D03*
X477880Y491960D03*
X472880Y491960D03*
D34*
X376680Y526220D03*
X376680Y581220D03*
X344680Y581220D03*
X344680Y526220D03*
D10*
X299720Y543170D03*
X299720Y526170D03*
X299720Y568080D03*
X299720Y585080D03*
D35*
X340970Y340640D03*
X340970Y375640D03*
X385470Y375640D03*
X385470Y340640D03*
D10*
X305190Y342900D03*
X322190Y342900D03*
D13*
X303920Y370840D03*
X320920Y370840D03*
D36*
X515980Y319720D03*
X560980Y319720D03*
X515980Y299720D03*
X560980Y299720D03*
X515980Y279720D03*
X560980Y279720D03*
D13*
X474980Y315840D03*
X474980Y298840D03*
X599440Y298840D03*
X599440Y315840D03*
D10*
X714620Y149860D03*
X697620Y149860D03*
X714620Y83820D03*
X697620Y83820D03*
X697620Y116840D03*
X714620Y116840D03*
X769620Y663820D03*
X769620Y646820D03*
D13*
X794140Y523240D03*
X811140Y523240D03*
X646820Y548640D03*
X663820Y548640D03*
X724780Y543560D03*
X707780Y543560D03*
X794140Y490220D03*
X811140Y490220D03*
X663820Y508000D03*
X646820Y508000D03*
X663820Y472440D03*
X646820Y472440D03*
D37*
X691654Y487713D02*
X699274Y487713D01*
X699274Y492759D02*
X691654Y492759D01*
X691654Y497805D02*
X699274Y497805D01*
X699274Y503155D02*
X691654Y503155D01*
X691654Y508176D02*
X699274Y508176D01*
X699274Y513247D02*
X691654Y513247D01*
X733686Y487713D02*
X741306Y487713D01*
X741306Y492759D02*
X733686Y492759D01*
X733686Y497805D02*
X741306Y497805D01*
X741306Y503155D02*
X733686Y503155D01*
X733686Y508176D02*
X741306Y508176D01*
X741306Y513247D02*
X733686Y513247D01*
X729247Y517432D02*
X729247Y525052D01*
X724201Y525052D02*
X724201Y517432D01*
X719155Y517432D02*
X719155Y525052D01*
X713805Y525052D02*
X713805Y517432D01*
X708784Y517432D02*
X708784Y525052D01*
X703713Y525052D02*
X703713Y517432D01*
X729247Y483528D02*
X729247Y475908D01*
X724201Y475908D02*
X724201Y483528D01*
X719155Y483528D02*
X719155Y475908D01*
X713805Y475908D02*
X713805Y483528D01*
X708784Y483528D02*
X708784Y475908D01*
X703713Y475908D02*
X703713Y483528D01*
D38*
X716380Y500580D03*
D39*
X769620Y516128D03*
X769620Y508000D03*
X769620Y499872D03*
X769620Y548640D03*
X769620Y538480D03*
X769620Y480060D03*
X769620Y469900D03*
D40*
X707690Y645860D03*
X720190Y645860D03*
X732690Y645860D03*
X745190Y645860D03*
X707690Y669860D03*
X720190Y669860D03*
X732690Y669860D03*
X745190Y669860D03*
D41*
X701040Y616100D03*
X701040Y603100D03*
D42*
X651360Y645160D03*
X664360Y645160D03*
X651360Y668020D03*
X664360Y668020D03*
D43*
X744220Y593060D03*
X744220Y621060D03*
D41*
X716280Y616100D03*
X716280Y603100D03*
X685800Y616100D03*
X685800Y603100D03*
D44*
X544380Y640080D03*
X544380Y632080D03*
X544380Y624080D03*
X544380Y616080D03*
X544380Y608080D03*
X544380Y648080D03*
X544380Y656080D03*
X544380Y664080D03*
X544380Y672080D03*
D45*
X500380Y684080D03*
X508380Y684080D03*
X516380Y684080D03*
X524380Y684080D03*
X532380Y684080D03*
X492380Y684080D03*
X484380Y684080D03*
X476380Y684080D03*
X468380Y684080D03*
D44*
X456380Y640080D03*
X456380Y648080D03*
X456380Y656080D03*
X456380Y664080D03*
X456380Y672080D03*
X456380Y632080D03*
X456380Y624080D03*
X456380Y616080D03*
X456380Y608080D03*
D45*
X500380Y596080D03*
X492380Y596080D03*
X484380Y596080D03*
X476380Y596080D03*
X468380Y596080D03*
X508380Y596080D03*
X516380Y596080D03*
X524380Y596080D03*
X532380Y596080D03*
D39*
X502920Y545592D03*
X502920Y553720D03*
X502920Y561848D03*
D13*
X425060Y650240D03*
X408060Y650240D03*
X425060Y622300D03*
X408060Y622300D03*
D10*
X462280Y562220D03*
X462280Y545220D03*
X541020Y562220D03*
X541020Y545220D03*
D46*
X56960Y521980D03*
X71960Y521980D03*
X86960Y521980D03*
X101960Y521980D03*
X116960Y521980D03*
X131960Y521980D03*
X146960Y521980D03*
X161960Y521980D03*
X176960Y521980D03*
X191960Y521980D03*
X191960Y681980D03*
X176960Y681980D03*
X161960Y681980D03*
X146960Y681980D03*
X131960Y681980D03*
X116960Y681980D03*
X101960Y681980D03*
X86960Y681980D03*
X71960Y681980D03*
X56960Y681980D03*
D47*
X116460Y603980D03*
D26*
X142748Y463718D03*
X142748Y484718D03*
D48*
X114808Y469036D03*
X114808Y488036D03*
X170434Y468528D03*
X170434Y487528D03*
D49*
X218440Y474980D03*
X193040Y474980D03*
D50*
X171602Y431546D03*
X190602Y431546D03*
D51*
X896620Y414020D02*
X911860Y414020D01*
X911860Y439420D02*
X896620Y439420D01*
X896620Y464820D02*
X911860Y464820D01*
X914400Y500380D02*
X899160Y500380D01*
X899160Y525780D02*
X914400Y525780D01*
X914400Y551180D02*
X899160Y551180D01*
X899160Y584200D02*
X914400Y584200D01*
X914400Y609600D02*
X899160Y609600D01*
X899160Y635000D02*
X914400Y635000D01*
X911860Y332740D02*
X896620Y332740D01*
X896620Y358140D02*
X911860Y358140D01*
X911860Y383540D02*
X896620Y383540D01*
D52*
X811680Y403580D03*
X791680Y403580D03*
X771680Y403580D03*
X751680Y403580D03*
X731680Y403580D03*
X711680Y403580D03*
X691680Y403580D03*
X671680Y403580D03*
X671680Y241580D03*
X691680Y241580D03*
X711680Y241580D03*
X731680Y241580D03*
X751680Y241580D03*
X771680Y241580D03*
X791680Y241580D03*
X811680Y241580D03*
D50*
X711860Y447040D03*
X730860Y447040D03*
D53*
X899160Y139700D03*
X899160Y190500D03*
D54*
X889000Y165100D03*
D55*
X898906Y151146D03*
X898906Y179054D03*
D56*
X883920Y165100D03*
X53340Y358140D03*
D53*
X35560Y383540D03*
X35560Y332740D03*
D54*
X45720Y358140D03*
D55*
X35814Y372094D03*
X35814Y344186D03*
D51*
X830580Y662940D02*
X830580Y678180D01*
X855980Y678180D02*
X855980Y662940D01*
X881380Y662940D02*
X881380Y678180D01*
X906780Y678180D02*
X906780Y662940D01*
X911860Y248920D02*
X896620Y248920D01*
X896620Y274320D02*
X911860Y274320D01*
X911860Y299720D02*
X896620Y299720D01*
D57*
X854000Y11880D03*
D58*
X848360Y39880D03*
X848360Y47880D03*
X848360Y55880D03*
X848360Y63880D03*
X848360Y71880D03*
D57*
X909000Y11880D03*
X854000Y99880D03*
X909000Y99880D03*
D59*
X879000Y33880D03*
X879000Y77880D03*
M02*
