G04 EAGLE Gerber RS-274X export*
G75*
%MOMM*%
%FSLAX34Y34*%
%LPD*%
%INSoldermask Bottom*%
%IPNEG*%
%AMOC8*
5,1,8,0,0,1.08239X$1,22.5*%
G01*
%ADD10R,1.259600X1.259600*%
%ADD11C,1.259600*%
%ADD12C,2.641600*%
%ADD13P,2.859241X8X292.500000*%
%ADD14C,2.197100*%
%ADD15R,2.251600X2.301600*%
%ADD16P,1.539592X8X202.500000*%
%ADD17C,3.101600*%
%ADD18C,1.625600*%
%ADD19R,4.165600X1.625600*%
%ADD20C,1.778000*%
%ADD21C,1.101600*%


D10*
X353060Y427720D03*
D11*
X353060Y476520D03*
D12*
X210820Y76200D03*
D13*
X210820Y25400D03*
D14*
X124778Y195580D02*
X103823Y195580D01*
X103823Y144780D02*
X124778Y144780D01*
X124778Y43180D02*
X103823Y43180D01*
X103823Y93980D02*
X124778Y93980D01*
D15*
X63500Y141380D03*
X63500Y97380D03*
D16*
X347980Y20320D03*
X271780Y20320D03*
D17*
X116460Y603980D03*
D18*
X896620Y414020D02*
X911860Y414020D01*
X911860Y439420D02*
X896620Y439420D01*
X896620Y464820D02*
X911860Y464820D01*
X914400Y500380D02*
X899160Y500380D01*
X899160Y525780D02*
X914400Y525780D01*
X914400Y551180D02*
X899160Y551180D01*
X899160Y584200D02*
X914400Y584200D01*
X914400Y609600D02*
X899160Y609600D01*
X899160Y635000D02*
X914400Y635000D01*
X911860Y332740D02*
X896620Y332740D01*
X896620Y358140D02*
X911860Y358140D01*
X911860Y383540D02*
X896620Y383540D01*
D19*
X899160Y139700D03*
X899160Y190500D03*
D20*
X883920Y165100D03*
X53340Y358140D03*
D19*
X35560Y383540D03*
X35560Y332740D03*
D18*
X830580Y662940D02*
X830580Y678180D01*
X855980Y678180D02*
X855980Y662940D01*
X881380Y662940D02*
X881380Y678180D01*
X906780Y678180D02*
X906780Y662940D01*
X911860Y248920D02*
X896620Y248920D01*
X896620Y274320D02*
X911860Y274320D01*
X911860Y299720D02*
X896620Y299720D01*
D21*
X879000Y33880D03*
X879000Y77880D03*
M02*
